<svg xmlns="http://www.w3.org/2000/svg" width="14.781" height="11.69" viewBox="0 0 14.781 11.69"><defs><style>.a{fill:#7e76f9;}</style></defs><g transform="translate(-0.001 -57.441)"><g transform="translate(0.001 57.441)"><path class="a" d="M14.782,58.824a6.184,6.184,0,0,1-1.741.465,2.98,2.98,0,0,0,1.333-1.632,6.215,6.215,0,0,1-1.927.717,3.062,3.062,0,0,0-2.213-.933A2.993,2.993,0,0,0,7.2,60.392a2.886,2.886,0,0,0,.079.673,8.688,8.688,0,0,1-6.25-3.085,2.871,2.871,0,0,0-.41,1.484,2.931,2.931,0,0,0,1.349,2.457A3.1,3.1,0,0,1,.6,61.551v.037a2.976,2.976,0,0,0,2.432,2.895,3.15,3.15,0,0,1-.8.1,2.987,2.987,0,0,1-.571-.055,3.025,3.025,0,0,0,2.832,2.05A6.19,6.19,0,0,1,.724,67.843,6.617,6.617,0,0,1,0,67.8a8.741,8.741,0,0,0,4.648,1.328,8.449,8.449,0,0,0,8.627-8.4l-.01-.382A5.97,5.97,0,0,0,14.782,58.824Z" transform="translate(-0.001 -57.441)"/></g></g></svg>