<svg xmlns="http://www.w3.org/2000/svg" xmlns:xlink="http://www.w3.org/1999/xlink" width="89.898" height="89.898" viewBox="0 0 89.898 89.898"><defs><style>.a{fill:url(#a);}</style><linearGradient id="a" x1="-0.486" y1="-1.049" x2="1.462" y2="25.014" gradientUnits="objectBoundingBox"><stop offset="0" stop-color="#88cb88"/><stop offset="1" stop-color="#43b943"/></linearGradient></defs><g transform="translate(29.966 7.491)"><rect class="a" width="29.966" height="2.997"/></g><g transform="translate(19.478 29.966)"><path class="a" d="M158.688,186.22a5.25,5.25,0,0,0-5.244-5.244h-3V160h-3v20.976H143.7a5.236,5.236,0,0,0-3.658,8.99,5.182,5.182,0,0,0-.788,6.493,5.24,5.24,0,0,0-3.045,4.744,5.183,5.183,0,0,0,.526,2.247H124.976a13.478,13.478,0,0,0-5.8-11.073,9,9,0,0,0,5.8-8.4,1.5,1.5,0,0,0-1.5-1.5H111.491V167.491h-3v14.983A4.5,4.5,0,0,0,104,186.969v32.963h3V186.969a1.5,1.5,0,0,1,1.5-1.5h13.294a6,6,0,0,1-5.8,4.495h-4.495a1.5,1.5,0,1,0,0,3,10.5,10.5,0,0,1,10.488,10.488v1.5a1.5,1.5,0,0,0,1.5,1.5h8.767a5.183,5.183,0,0,0-.526,2.247,5.25,5.25,0,0,0,5.244,5.244v5.993h3v-5.993H146.7a5.25,5.25,0,0,0,5.244-5.244,5.18,5.18,0,0,0-.538-2.269,5.2,5.2,0,0,0,4.235-7.97,5.218,5.218,0,0,0,1.46-8.49A5.223,5.223,0,0,0,158.688,186.22ZM146.7,210.942h-9.739a2.247,2.247,0,1,1,0-4.495H146.7a2.247,2.247,0,1,1,0,4.495Zm4.495-7.492h-9.739a2.247,2.247,0,1,1,0-4.495H151.2a2.247,2.247,0,1,1,0,4.495Zm2.247-7.492H143.7a2.247,2.247,0,1,1,0-4.495h9.739a2.247,2.247,0,0,1,0,4.495Zm0-7.491H143.7a2.247,2.247,0,1,1,0-4.495h9.739a2.247,2.247,0,0,1,0,4.495Z" transform="translate(-104 -160)"/></g><g transform="translate(5.993 13.485)"><path class="a" d="M48.477,77.586a1.5,1.5,0,0,0-.588-1.087l-1.56-1.182a4.089,4.089,0,0,0-8.1.749,8.7,8.7,0,0,1-3.365-1.359l-.522-.353A1.5,1.5,0,0,0,32,75.6v1.229A8.654,8.654,0,0,0,33.554,81.8l-1.121,1.134A1.5,1.5,0,0,0,33.5,85.485h7.26a5.672,5.672,0,0,0,5.611-5.04l1.678-1.7A1.5,1.5,0,0,0,48.477,77.586Zm-4.634,1.152a1.5,1.5,0,0,0-.433,1.053,2.678,2.678,0,0,1-2.651,2.7H36.947a1.5,1.5,0,0,0-.309-1.653,5.73,5.73,0,0,1-1.453-2.56,11.654,11.654,0,0,0,4.537.916,1.5,1.5,0,0,0,1.5-1.5V76.12a1.095,1.095,0,1,1,2.189,0A1.5,1.5,0,0,0,44,77.314l.714.541Z" transform="translate(-32 -72)"/></g><g transform="translate(40.454 22.474)"><path class="a" d="M224.99,123v-3h-4.495a1.5,1.5,0,0,0-1.5,1.5v4.495h-3v3h3v5.993h3V128.99h3v-3h-3v-3Z" transform="translate(-216 -120)"/></g><g transform="translate(31.464 16.481)"><path class="a" d="M190.474,88h-17.98A4.5,4.5,0,0,0,168,92.495v17.98a4.5,4.5,0,0,0,4.495,4.495h17.98a4.5,4.5,0,0,0,4.495-4.495V92.495A4.5,4.5,0,0,0,190.474,88Zm1.5,22.474a1.5,1.5,0,0,1-1.5,1.5h-17.98a1.5,1.5,0,0,1-1.5-1.5V92.495a1.5,1.5,0,0,1,1.5-1.5h17.98a1.5,1.5,0,0,1,1.5,1.5Z" transform="translate(-168 -88)"/></g><g transform="translate(0 7.491)"><path class="a" d="M22.474,40H4.495A4.5,4.5,0,0,0,0,44.495v17.98a4.5,4.5,0,0,0,4.495,4.495h17.98a4.5,4.5,0,0,0,4.495-4.495V44.495A4.5,4.5,0,0,0,22.474,40Zm1.5,22.474a1.5,1.5,0,0,1-1.5,1.5H4.495a1.5,1.5,0,0,1-1.5-1.5V44.495a1.5,1.5,0,0,1,1.5-1.5h17.98a1.5,1.5,0,0,1,1.5,1.5Z" transform="translate(0 -40)"/></g><g transform="translate(62.929)"><path class="a" d="M358.474,0h-17.98A4.5,4.5,0,0,0,336,4.495v17.98a4.5,4.5,0,0,0,4.495,4.495h17.98a4.5,4.5,0,0,0,4.495-4.495V4.495A4.5,4.5,0,0,0,358.474,0Zm1.5,22.474a1.5,1.5,0,0,1-1.5,1.5h-17.98a1.5,1.5,0,0,1-1.5-1.5V14.983h3.148a7.491,7.491,0,0,0,14.68,0h3.148Zm-14.983-8.99a4.495,4.495,0,1,1,4.495,4.495A4.5,4.5,0,0,1,344.99,13.485Zm14.983-1.5h-3.148a7.491,7.491,0,0,0-14.68,0H339V4.495a1.5,1.5,0,0,1,1.5-1.5h17.98a1.5,1.5,0,0,1,1.5,1.5Z" transform="translate(-336)"/></g><g transform="translate(43.451 61.43)"><rect class="a" width="2.997" height="2.997"/></g></svg>