<svg xmlns="http://www.w3.org/2000/svg" xmlns:xlink="http://www.w3.org/1999/xlink" width="90.138" height="84.129" viewBox="0 0 90.138 84.129"><defs><style>.a{fill:url(#a);}</style><linearGradient id="a" x1="1" y1="-0.258" x2="1.204" y2="1.186" gradientUnits="objectBoundingBox"><stop offset="0" stop-color="#fc6681"/><stop offset="1" stop-color="#fc6681"/></linearGradient></defs><g transform="translate(0 -16)"><g transform="translate(0 16)"><g transform="translate(0 0)"><path class="a" d="M85.631,56.562V23.512A7.52,7.52,0,0,0,78.12,16h-66.1a7.52,7.52,0,0,0-7.512,7.512V46.046A4.512,4.512,0,0,0,0,50.553V95.622a4.512,4.512,0,0,0,4.507,4.507H37.558a4.512,4.512,0,0,0,4.507-4.507H54.655A4.506,4.506,0,0,0,59,89.93L56.049,79.1H64.6V95.622a4.512,4.512,0,0,0,4.507,4.507H85.631a4.512,4.512,0,0,0,4.507-4.507V61.069A4.512,4.512,0,0,0,85.631,56.562ZM39.06,95.622a1.5,1.5,0,0,1-1.5,1.5H4.507a1.5,1.5,0,0,1-1.5-1.5v-3H39.06Zm0-6.009H3V56.562H39.06Zm0-36.055H3v-3a1.5,1.5,0,0,1,1.5-1.5H37.558a1.5,1.5,0,0,1,1.5,1.5ZM56.105,90.72a1.5,1.5,0,0,1-1.45,1.9H42.064v-3H55.8ZM42.064,86.608V79.1H52.935l2.049,7.512ZM64.6,76.092H42.064V67.078H64.6Zm0-15.023v3H42.064V50.553a4.512,4.512,0,0,0-4.507-4.507H7.512V23.512A4.512,4.512,0,0,1,12.018,19h66.1a4.512,4.512,0,0,1,4.507,4.507V56.562H69.106A4.512,4.512,0,0,0,64.6,61.069ZM87.134,95.622a1.5,1.5,0,0,1-1.5,1.5H69.106a1.5,1.5,0,0,1-1.5-1.5v-3h19.53Zm0-6.009H67.6V67.078h19.53Zm0-25.539H67.6v-3a1.5,1.5,0,0,1,1.5-1.5H85.631a1.5,1.5,0,0,1,1.5,1.5Z" transform="translate(0 -16)"/></g></g><g transform="translate(7.951 72.024)"><rect class="a" width="8.499" height="3.005" transform="translate(0 6.009) rotate(-45)"/></g><g transform="translate(13.96 64.512)"><g transform="translate(0 0)"><rect class="a" width="25.495" height="3.005" transform="translate(0 18.028) rotate(-45)"/></g></g><g transform="translate(16.964 60.008)"><rect class="a" width="12.747" height="3.005" transform="translate(0 9.013) rotate(-45)"/></g><g transform="translate(71.045 70.525)"><rect class="a" width="10.621" height="3.005" transform="translate(0 7.51) rotate(-45)"/></g><g transform="translate(74.049 76.541)"><g transform="translate(0 0)"><rect class="a" width="10.621" height="3.005" transform="translate(0 7.51) rotate(-45)"/></g></g><g transform="translate(39.498 32.966)"><rect class="a" width="12.747" height="3.005" transform="translate(0 9.013) rotate(-45)"/></g><g transform="translate(53.02 29.962)"><rect class="a" width="12.747" height="3.005" transform="translate(0 9.013) rotate(-45)"/></g><g transform="translate(44.005 41.981)"><rect class="a" width="8.499" height="3.005" transform="translate(0 6.009) rotate(-45)"/></g><g transform="translate(51.508 23.956)"><rect class="a" width="8.52" height="3.005" transform="translate(0 6.024) rotate(-45)"/></g><g transform="translate(10.516 22.009)"><rect class="a" width="3.005" height="3.005"/></g><g transform="translate(16.525 22.009)"><rect class="a" width="3.005" height="3.005"/></g><g transform="translate(22.535 22.009)"><rect class="a" width="3.005" height="3.005"/></g></g></svg>