<svg xmlns="http://www.w3.org/2000/svg" xmlns:xlink="http://www.w3.org/1999/xlink" width="598.286" height="439.781" viewBox="0 0 598.286 439.781"><defs><style>.a,.e{fill:#6c63ff;}.a,.f,.y{opacity:0.1;}.b{opacity:0.9;}.c,.j{fill:#3a3768;}.d{fill:#e6e8ec;}.g{fill:#ffd037;}.h{fill:#a8a8a8;}.i{opacity:0.2;}.j{opacity:0.3;}.k{fill:#fff;}.l{fill:#514e7f;}.m{fill:#464353;}.n{fill:#a1616a;}.o{fill:#fbbebe;}.p,.u{opacity:0.05;}.q{fill:#eeb4b4;}.r{fill:#3f3d56;}.s{fill:url(#a);}.t{fill:#2d293d;}.v{fill:#ffcdd3;}.w{fill:#dce6f2;}.x{fill:#575988;}</style><linearGradient id="a" x1="0.501" y1="1" x2="0.501" gradientUnits="objectBoundingBox"><stop offset="0" stop-color="gray" stop-opacity="0.251"/><stop offset="0.54" stop-color="gray" stop-opacity="0.122"/><stop offset="1" stop-color="gray" stop-opacity="0.102"/></linearGradient></defs><g transform="translate(0 0.003)"><path class="a" d="M427.091,109.8c-35.315-1.228-68.949-12.626-101.066-25.1S262.1,58.41,227.605,51.8c-22.148-4.251-47.5-4.851-65.369,7.028-17.188,11.459-22.743,31.184-25.728,49.5-2.248,13.789-3.569,28.292,2.586,41.2,4.278,8.96,11.862,16.49,17.112,25.1,18.263,29.858,5.353,66.679-14.433,95.833-9.276,13.674-20.053,26.737-27.217,41.284s-10.477,31.239-4.207,46.086c6.21,14.733,21.013,25.777,37.05,33.558,32.57,15.791,70.935,20.315,108.372,22.874,82.846,5.669,166.129,3.214,249.194.758,30.742-.911,61.615-1.833,91.855-6.586,16.8-2.641,34.131-6.832,46.32-16.915,15.48-12.839,19.316-34.583,8.943-50.68-17.4-27-65.478-33.716-77.652-62.7-6.69-15.949.18-33.721,9.909-48.514,20.866-31.741,55.837-59.58,57.675-95.86,1.266-24.914-15.546-49.867-41.54-61.659-27.245-12.359-65.031-10.8-85.122,9.653C494.648,102.782,458.275,110.885,427.091,109.8Z" transform="translate(-76.88 -49.02)"/><g class="b" transform="translate(225.742 61.188)"><rect class="c" width="4.834" height="39.844" rx="2.29" transform="translate(160.76 74.558)"/><rect class="c" width="2.712" height="13.117" rx="1.356" transform="translate(0.098 43.347)"/><rect class="c" width="3.056" height="22.83" rx="1.528" transform="translate(0 67.361)"/><rect class="c" width="2.908" height="23.027" rx="1.454" transform="translate(0.049 98.179)"/><rect class="c" width="161.731" height="328.696" rx="20" transform="translate(1.637)"/><rect class="d" width="22.585" height="4.583" rx="2.292" transform="translate(66.897 9.811)"/><circle class="d" cx="2.603" cy="2.603" r="2.603" transform="translate(92.897 9.505)"/></g><ellipse class="a" cx="109.114" cy="11.12" rx="109.114" ry="11.12" transform="translate(20.773 386.326)"/><ellipse class="a" cx="51.117" cy="5.211" rx="51.117" ry="5.211" transform="translate(321.389 429.356)"/><ellipse class="a" cx="51.117" cy="5.211" rx="51.117" ry="5.211" transform="translate(496.053 403.1)"/><path class="e" d="M615.679,176.84h-18.5v2.232a10.575,10.575,0,0,1-10.575,10.575H527.578A10.575,10.575,0,0,1,517,179.072V176.84H499.629a12.839,12.839,0,0,0-12.839,12.845V475.568a12.839,12.839,0,0,0,12.839,12.845H615.679a12.845,12.845,0,0,0,12.845-12.845V189.685A12.845,12.845,0,0,0,615.679,176.84Z" transform="translate(-249.42 -107.096)"/><path class="e" d="M833.376,134.68s-45.944-2.772-40.526,29.422c0,0-1.091,5.691,4.082,8.272,0,0,.082-2.384,4.709-1.577a20.975,20.975,0,0,0,4.993.24,10.367,10.367,0,0,0,6.106-2.515h0s12.91-5.336,17.936-26.442c0,0,3.716-4.605,3.569-5.789L826.49,139.6s2.646,5.593.545,10.242c0,0-.251-10.04-1.74-9.822-.306.044-4.032,1.937-4.032,1.937s4.562,9.74,1.091,16.822c0,0,1.3-12-2.543-16.119l-5.457,3.187s5.326,10.062,1.719,18.274c0,0,.922-12.594-2.865-17.5l-4.943,3.858s5,9.914,1.953,16.724c0,0-.4-14.656-3.028-15.764,0,0-4.327,3.82-4.987,5.38,0,0,3.427,7.2,1.3,11,0,0-1.3-9.767-2.374-9.822,0,0-4.311,6.471-4.758,10.913,0,0,.185-6.6,3.71-11.524,0,0-4.163.715-6.6,3.416,0,0,.671-4.573,7.639-4.976,0,0,3.563-4.911,4.518-5.206,0,0-6.957-.584-11.175,1.288,0,0,3.71-4.316,12.452-2.352l4.878-3.989s-9.156-1.25-13.041.131c0,0,4.474-3.82,14.362-1.037l5.315-3.176s-7.808-1.686-12.463-1.091c0,0,4.911-2.646,14.018.224l3.82-1.708s-5.724-1.124-7.4-1.3-1.762-.638-1.762-.638a19.834,19.834,0,0,1,10.82,1.233S833.512,135.188,833.376,134.68Z" transform="translate(-388.276 -87.913)"/><path class="e" d="M765.718,108.468s-20.735-1.25-18.312,13.3a3.549,3.549,0,0,0,1.844,3.738s.038-1.091,2.128-.715a9.555,9.555,0,0,0,2.253.109,4.7,4.7,0,0,0,2.761-1.135h0s5.833-2.412,8.1-11.95c0,0,1.681-2.079,1.637-2.614l-3.5,1.5s1.195,2.526.251,4.627c0,0-.109-4.534-.786-4.431-.136,0-1.817.878-1.817.878s2.057,4.4.5,7.6c0,0,.589-5.424-1.146-7.284l-2.466,1.441s2.406,4.545.775,8.256c0,0,.42-5.691-1.293-7.907l-2.237,1.746s2.264,4.48.884,7.557c0,0-.18-6.624-1.364-7.126a13.485,13.485,0,0,0-2.254,2.434s1.544,3.274.584,4.971c0,0-.589-4.414-1.091-4.436,0,0-1.948,2.925-2.15,4.911a10.619,10.619,0,0,1,1.675-5.206,5.843,5.843,0,0,0-2.979,1.544s.3-2.068,3.459-2.248a13.618,13.618,0,0,1,2.041-2.357,12.8,12.8,0,0,0-5.047.584s1.675-1.948,5.626-1.091l2.183-1.8s-4.136-.546-5.893.06c0,0,2.024-1.724,6.488-.469l2.4-1.435a21.811,21.811,0,0,0-5.626-.486s2.215-1.195,6.33.1l1.719-.769s-2.581-.507-3.339-.589-.8-.289-.8-.289a8.927,8.927,0,0,1,4.851.546S765.778,108.7,765.718,108.468Z" transform="translate(-367.741 -76.019)"/><ellipse class="e" cx="21.941" cy="3.71" rx="21.941" ry="3.71" transform="translate(0 366.552)"/><path class="e" d="M91.692,708.041a6.347,6.347,0,0,0,2.1-3.154,2.827,2.827,0,0,0-1.462-3.214c-1.342-.518-2.777.415-3.863,1.353s-2.335,2.014-3.76,1.812a5.713,5.713,0,0,0,1.752-5.353,2.182,2.182,0,0,0-.491-1.091c-.742-.8-2.1-.453-2.99.175-2.837,2-3.629,5.849-3.639,9.32a17.193,17.193,0,0,1-.055-3.82,3.935,3.935,0,0,0-1.441-3.394,4.364,4.364,0,0,0-2.183-.518,4.564,4.564,0,0,0-3.569,1.015c-1.091,1.157-.8,3.1.142,4.365a14.267,14.267,0,0,0,3.689,2.957,8.14,8.14,0,0,1,2.641,2.515,2.415,2.415,0,0,1,.2.447h7.994A22.25,22.25,0,0,0,91.692,708.041Z" transform="translate(-60.682 -343.852)"/><path class="e" d="M871.525,632.54s4.72,6.177-2.183,15.5-12.588,17.188-10.285,23c0,0,10.411-17.308,18.885-17.554S880.845,642.951,871.525,632.54Z" transform="translate(-418.322 -314.142)"/><path class="f" d="M871.749,632.54a7.777,7.777,0,0,1,.966,1.937c8.267,9.713,12.67,18.781,4.72,19.005-7.4.213-16.282,13.45-18.4,16.79a6.3,6.3,0,0,0,.251.764s10.411-17.308,18.885-17.554S881.069,642.951,871.749,632.54Z" transform="translate(-418.547 -314.142)"/><path class="g" d="M897.511,645.841c0,2.182-.246,3.934-.546,3.934s-.546-1.762-.546-3.934.306-1.146.606-1.146S897.511,643.658,897.511,645.841Z" transform="translate(-435.535 -319.553)"/><path class="g" d="M900.837,650.478c-1.91,1.037-3.569,1.67-3.716,1.4s1.288-1.321,3.2-2.363,1.151-.278,1.3,0S902.747,649.436,900.837,650.478Z" transform="translate(-435.848 -321.614)"/><path class="e" d="M827.821,632.54s-4.72,6.177,2.183,15.5,12.588,17.188,10.291,23c0,0-10.411-17.308-18.885-17.554S818.5,642.951,827.821,632.54Z" transform="translate(-399.555 -314.142)"/><path class="f" d="M827.818,632.54a7.566,7.566,0,0,0-.966,1.937c-8.266,9.713-12.67,18.781-4.725,19.005,7.4.213,16.282,13.45,18.41,16.79a7.374,7.374,0,0,1-.251.764s-10.411-17.308-18.885-17.554S818.5,642.951,827.818,632.54Z" transform="translate(-399.551 -314.142)"/><path class="g" d="M820.55,645.841c0,2.182.246,3.934.546,3.934s.546-1.762.546-3.934-.306-1.146-.606-1.146S820.55,643.658,820.55,645.841Z" transform="translate(-401.063 -319.553)"/><path class="g" d="M814.04,650.478c1.9,1.037,3.568,1.67,3.71,1.4s-1.282-1.321-3.192-2.363-1.157-.278-1.3,0S812.152,649.436,814.04,650.478Z" transform="translate(-397.582 -321.614)"/><path class="h" d="M823.31,695.67s13.2-.409,17.177-3.241,20.3-6.215,21.28-1.67,19.835,22.6,4.911,22.716-34.627-2.324-38.594-4.742S823.31,695.67,823.31,695.67Z" transform="translate(-402.317 -339.584)"/><path class="i" d="M866.979,717.819c-14.9.12-34.627-2.324-38.594-4.742-3.028-1.839-4.229-8.447-4.633-11.5h-.442s.835,10.646,4.807,13.063,23.692,4.862,38.594,4.742c4.3-.038,5.789-1.566,5.708-3.82C871.818,716.935,870.182,717.791,866.979,717.819Z" transform="translate(-402.317 -345.51)"/><rect class="j" width="42.577" height="42.577" transform="translate(318.95 266.206)"/><rect class="j" width="42.577" height="42.577" transform="translate(256.2 210.004)"/><rect class="j" width="42.577" height="42.577" transform="translate(260.293 321.448)"/><rect class="k" width="42.577" height="42.577" transform="translate(250.793 105.463)"/><rect class="k" width="42.577" height="42.577" transform="matrix(0.742, -0.671, 0.671, 0.742, 321.418, 279.427)"/><rect class="k" width="42.577" height="42.577" transform="translate(318.246 156.77)"/><rect class="k" width="42.577" height="42.577" transform="translate(264.423 204.242)"/><path class="e" d="M1022.706,776.748a16.6,16.6,0,0,0,7.421-.251c.366-.115.786-.365.737-.742a.877.877,0,0,0-.169-.36,23.156,23.156,0,0,1-2.254-4.272.348.348,0,0,0-.136-.191.332.332,0,0,0-.24,0c-1.091.284-2.041.993-3.132,1.293a4.476,4.476,0,0,1-1.7.131c-.491-.055-1.167-.464-1.609-.415C1021.893,773.561,1022.515,775.095,1022.706,776.748Z" transform="translate(-492.419 -377.009)"/><path class="e" d="M1107.277,766.939a12.681,12.681,0,0,0,4.294-4.032.661.661,0,0,0,.114-.344.707.707,0,0,0-.136-.338,13.978,13.978,0,0,0-3.487-3.765,10.315,10.315,0,0,0-1.948,1.8c-.409.431-1.544,1.14-1.555,1.784,0,.387.431.807.633,1.091.273.4.546.818.78,1.233A20.451,20.451,0,0,1,1107.277,766.939Z" transform="translate(-530.103 -371.353)"/><path class="l" d="M1020.348,783.941a1.636,1.636,0,0,1-.295,1.091,1.457,1.457,0,0,1-.627.366c-3.47,1.238-7.465-.311-10.913.917-.715.251-1.386.611-2.1.851a11.379,11.379,0,0,1-2.6.464c-1.228.12-2.456.191-3.683.224a8.911,8.911,0,0,1-2.772-.24,3.356,3.356,0,0,1-2.128-1.686,1.636,1.636,0,0,1-.1-1.2,1.357,1.357,0,0,1,.224-.387,3.325,3.325,0,0,1,.818-.66l1.277-.824a8.529,8.529,0,0,1,1.932-1.026c.5-.164,1.042-.235,1.55-.382a10.7,10.7,0,0,0,4.431-3.312l1.735-1.85a1.7,1.7,0,0,1,.6-.48,1.636,1.636,0,0,1,.742-.076,10.025,10.025,0,0,1,4.731,1.593,6.828,6.828,0,0,0,1.168.688,4.169,4.169,0,0,0,3.274-.409c.447-.235.349-.382.546-.8s.644-.693,1.037-.306a1.14,1.14,0,0,1,.245.469,13.02,13.02,0,0,1,.235,3.858,1.711,1.711,0,0,0,.076.6,3.654,3.654,0,0,0,.338.546.838.838,0,0,1,.071.142A3.786,3.786,0,0,1,1020.348,783.941Z" transform="translate(-480.349 -379.193)"/><path class="m" d="M1020.348,789.268a1.637,1.637,0,0,1-.295,1.091,1.458,1.458,0,0,1-.627.366c-3.47,1.239-7.465-.311-10.913.917-.715.251-1.386.611-2.1.851a11.385,11.385,0,0,1-2.6.464c-1.228.12-2.456.191-3.683.224a8.911,8.911,0,0,1-2.772-.24,3.356,3.356,0,0,1-2.128-1.686,1.637,1.637,0,0,1-.1-1.2,1.359,1.359,0,0,1,.224-.388c.207.426.355.982.48,1.184a2.422,2.422,0,0,0,1.637,1.173,4.149,4.149,0,0,0,1.479-.191c3.143-.78,6.482-.791,9.494-1.97a22.692,22.692,0,0,1,3.11-1.195,24.709,24.709,0,0,1,3.361-.273c1.773-.142,3.487-.677,5.238-.955a3.787,3.787,0,0,1,.2,1.828Z" transform="translate(-480.349 -384.52)"/><path class="l" d="M1107.73,768.585a6.3,6.3,0,0,1-1.915,3.41,21.853,21.853,0,0,0-2.674,2.93c-.906,1.375-1.3,3.072-2.472,4.234a6.7,6.7,0,0,1-1.484,1.091,10.25,10.25,0,0,1-1.926.884,14.747,14.747,0,0,1-5.457.3,4.854,4.854,0,0,1-1.724-.338,5.03,5.03,0,0,1-.731-.442,3.472,3.472,0,0,1-1.091-1.13,1.135,1.135,0,0,1-.1-.813,1.857,1.857,0,0,1,.546-.8,12.328,12.328,0,0,1,1.315-1.184,7.812,7.812,0,0,0,1.714-1.506,4.916,4.916,0,0,0,.66-1.506,13.483,13.483,0,0,0,.48-2.865,9.02,9.02,0,0,1,.2-1.915c.278-.982,1.009-1.872.922-2.892a.74.74,0,0,1,.038-.437.681.681,0,0,1,.344-.213,6.224,6.224,0,0,1,1.79-.409,2.063,2.063,0,0,1,1.637.649c.256.306.42.731.8.868a1.321,1.321,0,0,0,.546,0,4.643,4.643,0,0,0,2.6-.8,3.274,3.274,0,0,0,1.091-2.385c0-.338-.153-.693.366-.764.4-.055.709.36.911.633a8.906,8.906,0,0,1,1.751,3.192.887.887,0,0,1,.333-.066,1.424,1.424,0,0,1,1.189.611,2.355,2.355,0,0,1,.349,1.659Z" transform="translate(-522.633 -373.212)"/><path class="m" d="M1107.844,771.747a6.3,6.3,0,0,1-1.915,3.41,21.846,21.846,0,0,0-2.674,2.93c-.906,1.375-1.3,3.072-2.472,4.234a6.7,6.7,0,0,1-1.484,1.091,10.257,10.257,0,0,1-1.926.884,14.748,14.748,0,0,1-5.456.3,4.853,4.853,0,0,1-1.724-.338,4.984,4.984,0,0,1-.731-.442,3.464,3.464,0,0,1-1.092-1.13,2.657,2.657,0,0,1,1.124-.267c.813.044,1.4.808,2.182,1.042,1.092.333,2.183-.447,3.323-.715.731-.169,1.506-.12,2.22-.355a5.481,5.481,0,0,0,1.637-.993,8.324,8.324,0,0,0,1.751-1.692,10.792,10.792,0,0,0,1.031-2.052,29.248,29.248,0,0,1,2.079-3.978,2.629,2.629,0,0,1,.426-.546c.169-.158.382-.273.545-.415a4.342,4.342,0,0,0,1.321-2.406,4.029,4.029,0,0,1,.294-.8,1.425,1.425,0,0,1,1.19.611A2.357,2.357,0,0,1,1107.844,771.747Z" transform="translate(-522.747 -376.374)"/><path class="n" d="M979.181,552.285a7.924,7.924,0,0,1,2.226,2.6c.545,1.026,3.541,8.992,3.366,10.133.982-.993,4.878-1.157,5.855-2.144.415-.415,2.657-2.488,2.99-2.968s2.832-1.511,3.1-2c1.02-1.828-7.235-8.73-6.182-10.564a.447.447,0,0,0,.087-.284.437.437,0,0,0-.136-.218,13.137,13.137,0,0,0-2.39-1.637,3.82,3.82,0,0,1-1.823-2.183,7.842,7.842,0,0,0-2.112,1.43q-2.264,1.937-4.463,3.972c-.578.546-1.681,1.239-1.948,2S978.63,551.838,979.181,552.285Z" transform="translate(-472.471 -273.469)"/><path class="l" d="M996.221,554.61a23.911,23.911,0,0,0-3.536,2.892,7.076,7.076,0,0,0-2.253,3.607c-.1.546-.087,1.124-.175,1.686-.366,2.445-2.488,4.24-3.421,6.548a11.191,11.191,0,0,0-.6,2.182,25.717,25.717,0,0,0-.426,4.289c0,1.4,1.342,2.357,1.844,3.661a22.192,22.192,0,0,1,.89,3.967,48.338,48.338,0,0,0,2.232,7.366c1.844,5.091,7.819,19.169,9.664,24.265,5.647-1.419,20.686-4.676,25.684-7.639,1.67-.993-11.568-12.212-9.784-12.986a.9.9,0,0,0,.5-.376.864.864,0,0,0,0-.546c-1.779-7.8-7.361-14.187-9.887-21.826-.879-2.635-2.456-4.884-3.656-7.394-1.091-2.27-1.664-4.775-2.958-6.93a4.631,4.631,0,0,0-.944-1.184,5.794,5.794,0,0,0-1.048-.627C997.629,555.183,996.941,554.97,996.221,554.61Z" transform="translate(-476.149 -278.735)"/><circle class="n" cx="8.84" cy="8.84" r="8.84" transform="translate(498.17 260.248)"/><path class="m" d="M997.43,549.128a2.963,2.963,0,0,1,3.323-.475,1.637,1.637,0,0,1,.988,1.593l4.365.065a9.133,9.133,0,0,1,2.079.191,3.024,3.024,0,0,1,1.735,1.091c.055.071.115.153.2.169a.347.347,0,0,0,.2-.071,3.848,3.848,0,0,1,2.183-.393,11.8,11.8,0,0,1,6.417,2.821,2.078,2.078,0,0,1,.764.933c.153.5,0,1.135.36,1.473,0,4.12,1.413,7.956,2.357,11.966a5.3,5.3,0,0,0,1.326,1.9,7.641,7.641,0,0,1,1.419,2.117c.8,2.079-.306,4.518.475,6.608a10.644,10.644,0,0,0,1.506,2.374,6.118,6.118,0,0,1,1.282,3.066c.033.5-.033,1,0,1.512a9.21,9.21,0,0,0,.36,1.986c.316,1.206.655,2.412,1,3.612.545,1.942,1.309,4.043,3.05,5.08-4.207.715-8.638,1.408-12.648-.049a6.548,6.548,0,0,1-1.577-.791c-1.446-1.031-2.145-2.8-2.767-4.464a20.975,20.975,0,0,1-1.55-5.762,6.591,6.591,0,0,0-.262-1.882,5.261,5.261,0,0,0-2.483-2.341,11.944,11.944,0,0,1-2.985-2.324,4.638,4.638,0,0,1-1.211-3.492c.076-.617.316-1.211.344-1.833a1.468,1.468,0,0,0-.851-1.511c-3.061-.928-4.523-4.551-5.205-7.677a24.5,24.5,0,0,1-.393-4.911l-.038-3.159a4.191,4.191,0,0,1-1.375-3.023,3.4,3.4,0,0,0,0-1,2.8,2.8,0,0,0-.7-1.091A9.213,9.213,0,0,1,997.43,549.128Z" transform="translate(-481.428 -275.888)"/><path class="m" d="M979.658,566.106a23.365,23.365,0,0,1-.1,2.968c-.087.371-.235.726-.344,1.091a6.44,6.44,0,0,0,.409,4.158,23.1,23.1,0,0,0,2.123,3.683,5.6,5.6,0,0,1,.682,1.271,6.6,6.6,0,0,1,.262,1.457,44.393,44.393,0,0,0,1.042,5.86A11.509,11.509,0,0,0,985.8,591.3a1.43,1.43,0,0,0,.851.578,1.54,1.54,0,0,0,.726-.153l2.259-.857a1.572,1.572,0,0,0,.546-.284,1.369,1.369,0,0,0,.317-.884,12.993,12.993,0,0,0-.993-5.353c-1.833-5.206-4.267-10.22-5.457-15.606-.333-1.506-.508-3.82-1.6-4.993-.453-.491-.3-.284-.84,0a6.84,6.84,0,0,0-.791.42A2.592,2.592,0,0,0,979.658,566.106Z" transform="translate(-473.074 -282.755)"/><path class="m" d="M1059.24,627.68" transform="translate(-509.512 -311.934)"/><path class="e" d="M992.2,573.656q.9,4.764,1.839,9.533l8.774-2.3a6.147,6.147,0,0,0-.758-2.625c-.8-2.008-.819-4.24-1.468-6.3-.491-1.571-1.342-3.017-1.8-4.6-.267-.917-.4-1.877-.66-2.8a21.39,21.39,0,0,0-1.031-2.668,17,17,0,0,0-1.915-3.552,5.6,5.6,0,0,0-2.958,1.915,4.07,4.07,0,0,0-.546,1.888c-.153,1.975.546,3.956.322,5.91a17.461,17.461,0,0,0,.2,5.6Z" transform="translate(-478.802 -280.429)"/><path class="m" d="M1008.31,648.256c.491,1.877-.224,3.82-.8,5.686a44.159,44.159,0,0,0-1.79,8.561,7.093,7.093,0,0,1-.442,2.183,20.412,20.412,0,0,1-1.064,1.746,8.748,8.748,0,0,0-.671,5.255c.126,1.178.317,2.352.546,3.514a8.854,8.854,0,0,1,.229,4.278c.693-.153,1.168.742,1.141,1.457s-.278,1.479.06,2.106c.862.311.873,1.495.846,2.406a20.293,20.293,0,0,0,.595,4.714q1.953,9.38,4.147,18.71c3.159.982,6.848,2,9.86.644a1.938,1.938,0,0,0,1.25-1.255,2.261,2.261,0,0,0-.12-.966l-1.43-5.195a9.564,9.564,0,0,1-.513-3.82c.142-.966.546-2,.087-2.848a8.245,8.245,0,0,0-.6-.8c-.753-1.091-.36-2.559-.295-3.891a3.041,3.041,0,0,0-.065-.889,4.675,4.675,0,0,0-.42-.977,14.912,14.912,0,0,1-1.637-7.421,1.825,1.825,0,0,0-.131-.971,2.216,2.216,0,0,1-.24-.393,1.053,1.053,0,0,1,.076-.715,6.217,6.217,0,0,1-1.151-1.091,1.637,1.637,0,0,0,.273-2.521.84.84,0,0,0,.4-1.446c-.186-.131-.426-.185-.546-.371-.2-.273-.038-.66.125-.955l.873-1.577c.649-1.168.8-2.614,1.5-3.754a28.18,28.18,0,0,0,2.3-5.255l2.488-6.93,1.692,1.468a5.3,5.3,0,0,1,1.391,1.588,6.7,6.7,0,0,1,.448,1.9c.622,3.765,3,7.028,3.874,10.744a7.241,7.241,0,0,0,.8,2.4,5.2,5.2,0,0,1,.458.688,3.626,3.626,0,0,1,.191,1.14,5.314,5.314,0,0,0,2.242,3.82c.829.546,1.883.966,2.319,1.872a3.688,3.688,0,0,0,.382.8c.4.486,1.277.546,1.451,1.151.093.344-.087.748.109,1.047a.955.955,0,0,0,.409.306l2.439,1.222c2.728,1.359,4.1,4.474,6.117,6.76a14.058,14.058,0,0,1,1.828,2.423c.868,1.55,1.271,3.5,2.728,4.5a4.251,4.251,0,0,1,1.059.786c.463.606.294,1.457.333,2.221s.627,1.67,1.353,1.44a5.268,5.268,0,0,0,0,2.821,14.221,14.221,0,0,0,8.621-3.492,3.4,3.4,0,0,0,1.4-2.352.911.911,0,0,0-.1-.469,1.277,1.277,0,0,0-.546-.415c-2.275-1.233-2.963-4.092-4.1-6.417a53.748,53.748,0,0,0-3.754-5.718c-2.728-4.092-4.551-9.042-8.649-11.748a5.855,5.855,0,0,1-2.4-2.106,16.835,16.835,0,0,1-.48-1.746,1.467,1.467,0,0,0-1.282-1.091,7.787,7.787,0,0,0,.295-2.728,3.387,3.387,0,0,0-.136-1.173,5.539,5.539,0,0,0-.6-1.157,11.214,11.214,0,0,1-1.544-6,9.662,9.662,0,0,0-.1-3.225c-.164-.546-.447-1-.649-1.506a9.394,9.394,0,0,1-.469-2.81l-.224-3.6a17.216,17.216,0,0,0-.464-3.552c-.759-2.788-1.484-14.471-4.054-15.786s-6.957,7.672-9.822,7.852a13.094,13.094,0,0,0-3.754.72,18.2,18.2,0,0,0-5.091,3.378l-5.3,4.452a19.332,19.332,0,0,1-3.29,2.374Z" transform="translate(-484.156 -312.692)"/><path class="m" d="M963.837,522.09a6.668,6.668,0,0,1,5.146-2.51,12.006,12.006,0,0,1,5.686,1.43,7.334,7.334,0,0,0,1.637.682c.938.191,1.975-.066,2.821.382,1.124.595,1.337,2.112,1.239,3.378s-.333,2.652.338,3.738a10.331,10.331,0,0,1,.649.971,3.241,3.241,0,0,1-.06,2.079,16.716,16.716,0,0,1-1.091-1.37,1.27,1.27,0,0,0-1.544-.4c-.48.322-.48.917-.5,1.446s-.164,1.168-.666,1.342a1.092,1.092,0,0,1-1.091-.437c-.857-1.048-.513-2.728-1.359-3.776-.486-.6-1.288-.889-1.735-1.517-.349-.491-.436-1.129-.742-1.637s-1.02-.922-1.5-.546a2.034,2.034,0,0,0-.4.545,2.3,2.3,0,0,1-2.728.819,4.784,4.784,0,0,0-1.184-.507,1.457,1.457,0,0,0-1.348.731,2.9,2.9,0,0,0-.355,1.561,3.627,3.627,0,0,1-.295,2.144,2.216,2.216,0,0,1-.633.546,1.873,1.873,0,0,1-2.073.213,1.561,1.561,0,0,1-.464-1.451,11.989,11.989,0,0,1,.442-1.533c.327-1.157-.1-2.461.262-3.552A11.184,11.184,0,0,1,963.837,522.09Z" transform="translate(-465.127 -262.819)"/><path class="e" d="M974.4,559.264a1.364,1.364,0,0,0,.082.813,1.318,1.318,0,0,0,.442.426,9.156,9.156,0,0,0,4.169,1.348,1.254,1.254,0,0,1,.546.147,1.031,1.031,0,0,1,.246,1.162,3.092,3.092,0,0,0-.262,1.233c.109.78,1.031,1.135,1.817,1.233a4.212,4.212,0,0,0,3.159-.611,4.873,4.873,0,0,0,1.3-1.959c2.145-4.911,2.9-10.367,5.069-15.278a3.1,3.1,0,0,0,.327-1.02,1.015,1.015,0,0,0-.4-.944c-.4-.251-1.031-.109-1.3-.5-.136-.2-.12-.469-.24-.677-.251-.447-.906-.393-1.359-.633-.349-.191-.595-.546-.982-.649a1.255,1.255,0,0,0-1.026.442,13.186,13.186,0,0,0-2.652,4.469,53.058,53.058,0,0,1-3.82,7.044,4.071,4.071,0,0,0-1.189-2.33c-.666-.136-1.528,1.037-1.888,1.479a9.361,9.361,0,0,0-2.035,4.8Z" transform="translate(-470.95 -273.622)"/><rect class="k" width="42.577" height="42.577" transform="translate(507.91 292.627)"/><path class="n" d="M1057.546,626.5a17.212,17.212,0,0,0-2.019,2.117,4.217,4.217,0,0,0-.927,2.728,1.4,1.4,0,0,0,.262.8.682.682,0,0,0,.758.235,1.09,1.09,0,0,0,.371-.333,17.454,17.454,0,0,1,1.255-1.364c.164-.158.371-.327.589-.267a.621.621,0,0,1,.256.169,1.738,1.738,0,0,1,.546.824,1.954,1.954,0,0,1-.578,1.588,4.112,4.112,0,0,0-.977,1.446.615.615,0,0,0,0,.464.759.759,0,0,0,.289.251,4.213,4.213,0,0,0,3.53.229c.759-.3,1.413-.824,2.183-1.091a5.252,5.252,0,0,0,.966-.36,1.987,1.987,0,0,0,.857-1.277,5.456,5.456,0,0,0,.06-1.577,18.011,18.011,0,0,0-1.315-5.948.71.71,0,0,0-.213-.316.747.747,0,0,0-.36-.1c-.955-.1-2.526-.589-3.449-.235a2.359,2.359,0,0,0-.813.726C1058.6,625.391,1057.546,626.248,1057.546,626.5Z" transform="translate(-507.402 -310.42)"/><path class="m" d="M1048.24,597.642c0-.917-1.135-3.116.66-3.274,0-.971-1.38-1.582-1.129-2.608.087-.349.365-.627.409-.977.115-1-1.686-1.539-1.391-2.5.109-.366.507-.589.595-.96.2-.862-1.342-1.249-1.37-2.133,0-.3.164-.584.153-.878,0-.376-.327-.66-.507-.982-.464-.835-.24-2.128-1.091-2.554.546.044.759-.791.518-1.3s-.709-.955-.709-1.522a2.411,2.411,0,0,0,0-.628c-.158-.546-1.053-.584-1.2-1.129a5.771,5.771,0,0,1,0-.617c-.055-.426-.491-.688-.9-.813a3.577,3.577,0,0,1-1.2-.426c-.262-.2-.546-.546-.846-.355-.1.06-.158.18-.24.273-.333.387-.971.218-1.4-.071a5.779,5.779,0,0,1-2.139-3.852c-.273-1.484-.256-3.018-.583-4.491a10.32,10.32,0,0,0-.4-1.342,6.936,6.936,0,0,1-.633-1.342c-.065-.857,1.713-.273,2.39-.186a10.6,10.6,0,0,1,1.942.366,20.532,20.532,0,0,1,1.981.868c2.728,1.195,5.959,1.342,8.13,3.345a6.758,6.758,0,0,0,2.237,1.817,11.479,11.479,0,0,1,1.255.327c1.031.486,1.189,1.85,1.751,2.838a6.079,6.079,0,0,1,.464.818,3.228,3.228,0,0,1,.147,1.048l.076,2.592a95.767,95.767,0,0,1-.207,13.008,10.73,10.73,0,0,0,.049,4.256c.109.371.267.726.36,1.091a7.414,7.414,0,0,1,.142,1.348l.06,1.675a.4.4,0,0,1-.535.5c-2.341-.207-4.7-1.528-6.908-.731" transform="translate(-498.424 -282.408)"/><path class="n" d="M979.137,613.706a.72.72,0,0,0-.262.218,1.86,1.86,0,0,0,0,2.215.755.755,0,0,1,.131.218.645.645,0,0,1-.066.371,1.228,1.228,0,0,0,.169,1.375c.169.142.4.213.507.4.191.316-.076.72-.033,1.091.055.486.628.726,1.091.786a1.163,1.163,0,0,0,1.064-.284.884.884,0,0,0,0-.966,2.582,2.582,0,0,0-.72-.72,1.091,1.091,0,0,0,1.031-1,1.55,1.55,0,0,0-.622-1.359c-.1-.082-.218-.164-.245-.295s.1-.311.224-.437c.546-.546.966-1.882-.06-2.183a2.526,2.526,0,0,0-1.091.049c-.262.082-.262.24-.464.349S979.367,613.591,979.137,613.706Z" transform="translate(-472.832 -305.31)"/><path class="f" d="M995.857,545.14a1.8,1.8,0,0,0-1.386.7,3.986,3.986,0,0,0-.578,1.855,16.266,16.266,0,0,1-2.183,5.926" transform="translate(-478.829 -274.432)"/><path class="f" d="M999.407,547.88a2.118,2.118,0,0,0-1.812,1.091,6.061,6.061,0,0,0-.458,1.85,10.051,10.051,0,0,1-1.817,3.88" transform="translate(-480.469 -275.677)"/><path class="o" d="M335.843,606.794c.316,3.448-2.286,6.788-1.528,10.16.164.72.475,1.4.589,2.128.311,2-.884,3.9-2.024,5.577l-9.789,14.373a9.31,9.31,0,0,1-1.4,1.729c-1.877,1.637-4.682,1.49-7.143,1.986a12.248,12.248,0,0,0-4.78,2.117.311.311,0,0,0-.066.431,4.12,4.12,0,0,0,3.558,1.67c.256.338,0,.835-.355,1.091-.546.366-1.25.458-1.353,1.353a1.463,1.463,0,0,0,.18.895,2.767,2.767,0,0,0,1.713,1.189c3.389,1.037,7.055-.78,9.587-3.274s4.365-5.6,6.853-8.13c1.38-1.391,2.946-2.592,4.365-3.945a50.225,50.225,0,0,0,7.164-9.276,10.3,10.3,0,0,0,1.55-3.154c.262-1.124.142-2.308.447-3.421a12.35,12.35,0,0,1,2.346-3.82,12.679,12.679,0,0,0,2.668-8.267,7.915,7.915,0,0,0-4.834-6.859,4.327,4.327,0,0,0-2.728-.169,6.585,6.585,0,0,0-2.761,2.182l-1.855,2.15a4.956,4.956,0,0,0-1.091,1.637,1.719,1.719,0,0,0,.382,1.828" transform="translate(-168.933 -299.828)"/><path class="p" d="M335.843,606.794c.316,3.448-2.286,6.788-1.528,10.16.164.72.475,1.4.589,2.128.311,2-.884,3.9-2.024,5.577l-9.789,14.373a9.31,9.31,0,0,1-1.4,1.729c-1.877,1.637-4.682,1.49-7.143,1.986a12.248,12.248,0,0,0-4.78,2.117.311.311,0,0,0-.066.431,4.12,4.12,0,0,0,3.558,1.67c.256.338,0,.835-.355,1.091-.546.366-1.25.458-1.353,1.353a1.463,1.463,0,0,0,.18.895,2.767,2.767,0,0,0,1.713,1.189c3.389,1.037,7.055-.78,9.587-3.274s4.365-5.6,6.853-8.13c1.38-1.391,2.946-2.592,4.365-3.945a50.225,50.225,0,0,0,7.164-9.276,10.3,10.3,0,0,0,1.55-3.154c.262-1.124.142-2.308.447-3.421a12.35,12.35,0,0,1,2.346-3.82,12.679,12.679,0,0,0,2.668-8.267,7.915,7.915,0,0,0-4.834-6.859,4.327,4.327,0,0,0-2.728-.169,6.585,6.585,0,0,0-2.761,2.182l-1.855,2.15a4.956,4.956,0,0,0-1.091,1.637,1.719,1.719,0,0,0,.382,1.828" transform="translate(-168.933 -299.828)"/><path class="q" d="M216.713,620.09c.546,1.724,1.091,3.449,1.752,5.129A43.4,43.4,0,0,0,223,633.491a59.594,59.594,0,0,0,3.749,4.911c1.67,1.97,3.536,3.951,4.125,6.466a32.747,32.747,0,0,1,.371,4.458,5.444,5.444,0,0,0,1.828,3.951,6.794,6.794,0,0,0,3.012.993c.753.12,1.7.158,2.09-.5a1.861,1.861,0,0,0,.207-.862l.186-2.183c.038-.469.2-1.091.671-1.091s.709.606,1.091.884a1.184,1.184,0,0,0,1.637-.546,2.728,2.728,0,0,0,.044-1.91,9.069,9.069,0,0,0-4.654-5.768,14,14,0,0,1-2.27-1.184,7.722,7.722,0,0,1-1.784-2.248c-4.125-6.793-8.272-13.641-11.186-21.013a15.547,15.547,0,0,1-1.151-4.142,26.738,26.738,0,0,1,.18-4.365,24.986,24.986,0,0,0-.72-7.792,6.126,6.126,0,0,0-.747-1.893,4.237,4.237,0,0,0-5.795-.835,5.97,5.97,0,0,0-2.3,4.213c-.131,1.468.72,3,1.151,4.365Q214.733,613.744,216.713,620.09Z" transform="translate(-124.373 -298.473)"/><path class="r" d="M365.623,753.873c-2.139,1.3-4.8,1.38-7.29,1.091-.4-.049-.873-.082-1.13.229-.371.448.065,1.091.518,1.473a10.847,10.847,0,0,0,5.009,2.057,34.154,34.154,0,0,0,4.911.328,83.038,83.038,0,0,0,13.385-.5,1.771,1.771,0,0,0,.731-.213,1.386,1.386,0,0,0,.546-.84,3.344,3.344,0,0,0-1.168-3.187,9.82,9.82,0,0,0-3.121-1.675l-3.885-1.511c-.911-.355-2.379-1.3-3.367-1.222C368.93,750.026,367.167,752.967,365.623,753.873Z" transform="translate(-190.48 -367.465)"/><path class="r" d="M383.993,769.56a9.543,9.543,0,0,1-6.521,2.434c-.611,0-1.462.115-1.462.726a.962.962,0,0,0,.175.508,6,6,0,0,0,3.372,2.641,12.005,12.005,0,0,0,4.071.256l3.983-.207c.753-.038,1.511-.076,2.259-.169s1.56-.246,2.341-.366a31.191,31.191,0,0,1,5.8-.273,1.686,1.686,0,0,0,1.43-.382c.355-.448.147-1.091.033-1.637-.24-1.151,0-2.363-.224-3.525a6.2,6.2,0,0,0-4.065-4.327c-1.79-.682-4.965-1.462-6.662-.327C386.7,766.117,385.6,768.1,383.993,769.56Z" transform="translate(-199.088 -374.023)"/><path class="m" d="M373.765,661.075c-1.637,2.155-3.274,4.644-2.892,7.306a16.475,16.475,0,0,0,1.61,4.032,28.422,28.422,0,0,1,1.637,5.664c.606,2.821,1.211,5.647,1.588,8.507a53.133,53.133,0,0,1,.355,9.767,3.3,3.3,0,0,1-.682,2.183c-.218.218-.5.4-.595.693a1.173,1.173,0,0,0,.126.818,9.063,9.063,0,0,0,4.856,4.469,18.6,18.6,0,0,0,6.6,1.233,1.857,1.857,0,0,0,.884-.115,1.7,1.7,0,0,0,.682-.78c1.637-3.11.726-6.864.753-10.367,0-2.93.709-5.833.584-8.763-.1-2.346-.731-4.638-.96-6.979-.376-3.82.327-7.694,1.031-11.486.546-2.9,1.091-5.811,1.773-8.687a16.567,16.567,0,0,1,1.877-5.042c.764-1.206,1.8-2.215,2.674-3.35a15.207,15.207,0,0,0,2.99-11.115c-.055-.393-5.62,1.408-6.1,1.637a18.916,18.916,0,0,0-5.456,3.5,45.168,45.168,0,0,0-3.427,4.234q-2.39,2.908-4.7,5.849Q376.33,657.654,373.765,661.075Z" transform="translate(-196.728 -317.081)"/><path class="p" d="M373.765,661.075c-1.637,2.155-3.274,4.644-2.892,7.306a16.475,16.475,0,0,0,1.61,4.032,28.422,28.422,0,0,1,1.637,5.664c.606,2.821,1.211,5.647,1.588,8.507a53.133,53.133,0,0,1,.355,9.767,3.3,3.3,0,0,1-.682,2.183c-.218.218-.5.4-.595.693a1.173,1.173,0,0,0,.126.818,9.063,9.063,0,0,0,4.856,4.469,18.6,18.6,0,0,0,6.6,1.233,1.857,1.857,0,0,0,.884-.115,1.7,1.7,0,0,0,.682-.78c1.637-3.11.726-6.864.753-10.367,0-2.93.709-5.833.584-8.763-.1-2.346-.731-4.638-.96-6.979-.376-3.82.327-7.694,1.031-11.486.546-2.9,1.091-5.811,1.773-8.687a16.567,16.567,0,0,1,1.877-5.042c.764-1.206,1.8-2.215,2.674-3.35a15.207,15.207,0,0,0,2.99-11.115c-.055-.393-5.62,1.408-6.1,1.637a18.916,18.916,0,0,0-5.456,3.5,45.168,45.168,0,0,0-3.427,4.234q-2.39,2.908-4.7,5.849Q376.33,657.654,373.765,661.075Z" transform="translate(-196.728 -317.081)"/><path class="m" d="M391.222,642.152c.349,1.67,1.97,2.947,2.013,4.655.038,1.364-.933,2.51-1.637,3.683a24.716,24.716,0,0,0-1.67,3.787,57.745,57.745,0,0,1-4.911,9.751c-.933,1.484-1.981,3.094-1.762,4.834a7.137,7.137,0,0,0,.846,2.308l2.8,5.571a15.989,15.989,0,0,1,1.43,3.52c.246,1.058.267,2.182.409,3.23.442,3.416,2.041,6.853,1.091,10.166-.082.284-.382.627-.606.431a10.616,10.616,0,0,1,1.6,5.457,7.592,7.592,0,0,0,.033,3.061,3.342,3.342,0,0,1,.426,1.168c0,.278-.131.546-.158.824a1.825,1.825,0,0,0,1.4,1.7c.753.251,1.571.235,2.33.458,1.462.437,2.5,1.692,3.754,2.565a7.883,7.883,0,0,0,4.305,1.4,1.09,1.09,0,0,0,.633-.125,1.037,1.037,0,0,0,.355-.769,4.278,4.278,0,0,0-1.544-3.716,1.719,1.719,0,0,1-.546-.6,1.456,1.456,0,0,1-.055-.671,49.772,49.772,0,0,0-.164-9.194,14.185,14.185,0,0,1-.142-2.925,11.962,11.962,0,0,0,.235-2.439,12.454,12.454,0,0,0-.747-2.33,16.329,16.329,0,0,1-.355-4.365,38.257,38.257,0,0,0-1.233-7.47,5.669,5.669,0,0,0-1.162-2.7c-.584-.611-1.528-1.189-1.3-2a2.314,2.314,0,0,1,.546-.8,3.2,3.2,0,0,0,.671-2.439,1.091,1.091,0,0,0,1.255-.589,19.644,19.644,0,0,0,9.865-11.219,3.643,3.643,0,0,1,.442-1,4.552,4.552,0,0,1,1.806-1.173c2.041-1.026,3.449-2.952,4.742-4.834a11.246,11.246,0,0,0,1.833-3.509,11.557,11.557,0,0,0,.251-2.532l.115-4.365a2.507,2.507,0,0,0-.082-.857,2.183,2.183,0,0,0-.475-.7,8.474,8.474,0,0,0-4.66-2.51c-1.2-.213-2.417-.175-3.629-.273-2.346-.2-4.665-.922-7.017-.753a11.288,11.288,0,0,0-8.73,6.095C393.176,641.132,392.532,642.114,391.222,642.152Z" transform="translate(-202.366 -314.734)"/><path class="l" d="M172.8,760.932a5.939,5.939,0,0,0,2.51.3c.06-.693.993-.846,1.686-.813a1.935,1.935,0,0,1,.993.218c.175.109.306.273.475.388a2.04,2.04,0,0,0,.982.251l3.612.306a10.819,10.819,0,0,0,4.791-.316,1.567,1.567,0,0,0,.769-.513c.409-.584,0-1.424-.546-1.85s-1.293-.622-1.861-1.059c-1.255-.955-1.424-2.728-2.09-4.169a12.028,12.028,0,0,0-1.724-2.5,9.59,9.59,0,0,0-1.708-1.746c-1.446-1.048-3.116-1.026-4.813-1.173-1.2-.109-2.33-.18-3.192.884-1.064,1.32-.638,3.983-.573,5.56a39.8,39.8,0,0,0,.688,6.237Z" transform="translate(-106.385 -366.689)"/><path class="p" d="M172.8,760.932a5.939,5.939,0,0,0,2.51.3c.06-.693.993-.846,1.686-.813a1.935,1.935,0,0,1,.993.218c.175.109.306.273.475.388a2.04,2.04,0,0,0,.982.251l3.612.306a10.819,10.819,0,0,0,4.791-.316,1.567,1.567,0,0,0,.769-.513c.409-.584,0-1.424-.546-1.85s-1.293-.622-1.861-1.059c-1.255-.955-1.424-2.728-2.09-4.169a12.028,12.028,0,0,0-1.724-2.5,9.59,9.59,0,0,0-1.708-1.746c-1.446-1.048-3.116-1.026-4.813-1.173-1.2-.109-2.33-.18-3.192.884-1.064,1.32-.638,3.983-.573,5.56a39.8,39.8,0,0,0,.688,6.237Z" transform="translate(-106.385 -366.689)"/><path class="m" d="M169.121,640.424a2.529,2.529,0,0,0-1.381,2.876,10.328,10.328,0,0,0,1.457,3.137c1.6,2.875,2.3,6.166,3.65,9.167,1.009,2.242,2.374,4.316,3.372,6.548a11.017,11.017,0,0,1,1.009,7.17c-.295,1.162-.862,2.232-1.244,3.367a19.1,19.1,0,0,0-.731,3.82,72.4,72.4,0,0,0-.262,13.183,4.007,4.007,0,0,0,.333,1.561c.224.436.617.895.426,1.348-.076.18-.24.311-.322.491-.229.5.235,1.026.655,1.381a1.129,1.129,0,0,1-.709.545,1.676,1.676,0,0,1,.715,1.866c-.377.054-.4.627-.158.927s.606.491.775.829a1.162,1.162,0,0,1-.638,1.462,2.991,2.991,0,0,1-1.741.131,18.865,18.865,0,0,1-2.914-.638,2.617,2.617,0,0,1-.895-.409,2.658,2.658,0,0,1-.8-1.768,31.945,31.945,0,0,1-.2-5.456c.158-8.818,0-17.646-.382-26.459a30.3,30.3,0,0,0-2.6-10.28A52.761,52.761,0,0,0,164,650.312c-1.975-3.634-3.732-7.639-3.274-11.759.049-.442.213-.977.649-1.048a.943.943,0,0,1,.5.082,23.177,23.177,0,0,1,2.646,1.462A10.03,10.03,0,0,0,169.121,640.424Z" transform="translate(-101.242 -316.395)"/><path class="p" d="M169.121,640.424a2.529,2.529,0,0,0-1.381,2.876,10.328,10.328,0,0,0,1.457,3.137c1.6,2.875,2.3,6.166,3.65,9.167,1.009,2.242,2.374,4.316,3.372,6.548a11.017,11.017,0,0,1,1.009,7.17c-.295,1.162-.862,2.232-1.244,3.367a19.1,19.1,0,0,0-.731,3.82,72.4,72.4,0,0,0-.262,13.183,4.007,4.007,0,0,0,.333,1.561c.224.436.617.895.426,1.348-.076.18-.24.311-.322.491-.229.5.235,1.026.655,1.381a1.129,1.129,0,0,1-.709.545,1.676,1.676,0,0,1,.715,1.866c-.377.054-.4.627-.158.927s.606.491.775.829a1.162,1.162,0,0,1-.638,1.462,2.991,2.991,0,0,1-1.741.131,18.865,18.865,0,0,1-2.914-.638,2.617,2.617,0,0,1-.895-.409,2.658,2.658,0,0,1-.8-1.768,31.945,31.945,0,0,1-.2-5.456c.158-8.818,0-17.646-.382-26.459a30.3,30.3,0,0,0-2.6-10.28A52.761,52.761,0,0,0,164,650.312c-1.975-3.634-3.732-7.639-3.274-11.759.049-.442.213-.977.649-1.048a.943.943,0,0,1,.5.082,23.177,23.177,0,0,1,2.646,1.462A10.03,10.03,0,0,0,169.121,640.424Z" transform="translate(-101.242 -316.395)"/><path class="m" d="M141.282,622.706a2.909,2.909,0,0,0-4.011.431,21.9,21.9,0,0,0-2.073,1.823,11.093,11.093,0,0,0-2.477,10.973,21.931,21.931,0,0,0,3.034,5.38l2.4,3.448c3.661,5.26,7.328,10.52,11.164,15.655a.589.589,0,0,0,.415.546c.142.038.311.033.4.147a.425.425,0,0,1,.049.235,3.562,3.562,0,0,1-.213,1.091.508.508,0,0,0-.044.376c.12.289.649.126.813.4a.434.434,0,0,1-.175.546.631.631,0,0,0-.3.546c.027.224.393.431.376.7,0,.153-.131.267-.224.387a.988.988,0,0,0,.12,1.26c.251,2.51-1.091,4.884-1.381,7.394-.431,3.945,1.353,7.8,1.572,11.759a3.149,3.149,0,0,0,.246,1.3c.371.682,1.32,1.091,1.288,1.872a7.151,7.151,0,0,1-.267.944,7.586,7.586,0,0,0,.142,1.348c0,.453-.382.993-.8.818q.475,1.572.84,3.17l8.4.693a7.546,7.546,0,0,0-.076-2.27c-.175-.808-.546-1.566-.731-2.374a2.8,2.8,0,0,1,.333-2.374.928.928,0,0,1-.928-.764,3.743,3.743,0,0,1,0-1.3c.224-2.183-.7-4.365-.671-6.548a31.531,31.531,0,0,1,.944-5.1c.655-3.645-.027-7.6,1.593-10.913.982-2.008,2.341-4.234,1.239-6.177-.546-.96-1.5-1.637-2.123-2.521a10.241,10.241,0,0,1-1.14-2.728c-1.3-4.016-3.388-7.721-5.227-11.524a12.13,12.13,0,0,1-1.124-3.028,15.4,15.4,0,0,1-.136-2.794,42.821,42.821,0,0,0-.311-5.02,3.66,3.66,0,0,0-1.921-3.274C147.54,625.358,144.255,624.272,141.282,622.706Z" transform="translate(-88.31 -309.399)"/><path class="l" d="M166.579,766.577a5.941,5.941,0,0,0,2.51.3c.065-.693.993-.846,1.686-.813a1.938,1.938,0,0,1,.966.224c.175.109.306.273.48.387a2.009,2.009,0,0,0,.982.251l3.607.306a10.849,10.849,0,0,0,4.8-.317,1.577,1.577,0,0,0,.764-.513c.409-.584,0-1.424-.546-1.85s-1.293-.622-1.866-1.059c-1.25-.955-1.424-2.728-2.09-4.169a12.034,12.034,0,0,0-1.724-2.5,9.561,9.561,0,0,0-1.7-1.746c-1.451-1.047-3.116-1.026-4.813-1.173-1.206-.109-2.335-.18-3.192.884-1.091,1.32-.644,3.983-.578,5.56A40.54,40.54,0,0,0,166.579,766.577Z" transform="translate(-103.539 -369.255)"/><rect class="k" width="42.577" height="42.577" transform="translate(108.601 334.031)"/><circle class="o" cx="8.321" cy="8.321" r="8.321" transform="translate(91.953 282.118)"/><path class="o" d="M207.787,584.482c-1.2,1.031-2.9,1.091-4.469,1.266a27.93,27.93,0,0,0-9.614,2.783,3.432,3.432,0,0,0-1.091.764,3.149,3.149,0,0,0-.546,1.189,7.868,7.868,0,0,0-.316,2.892,8.337,8.337,0,0,0,.8,2.728,14.645,14.645,0,0,0,5.162,5.882,3.749,3.749,0,0,0,1.255.6c1.091.229,2.155-.409,3.23-.693a5.294,5.294,0,0,1,2.985.1c.906.3,1.861.851,2.728.486a2.848,2.848,0,0,0,1.244-1.413,47.958,47.958,0,0,0,2.27-4.971,18.833,18.833,0,0,1,.824-1.931c.966-1.839,2.635-3.274,3.465-5.162a1.135,1.135,0,0,0,.076-.971,1.348,1.348,0,0,0-.611-.469,14.582,14.582,0,0,1-3.323-2.608c-.546-.546-1.555-1.942-2.341-2.068C208.655,582.769,208.388,583.97,207.787,584.482Z" transform="translate(-115.359 -291.577)"/><path class="l" d="M187.829,606.189a4.964,4.964,0,0,1-3.148.038,34.74,34.74,0,0,1-7.912-2.3,4.233,4.233,0,0,1-1.943-1.49,4.763,4.763,0,0,1-.546-1.866l-.458-3.094a18.761,18.761,0,0,1,.142-3.176.928.928,0,0,0-.18-.693.748.748,0,0,0-.546-.169c-1.25,0-2,1.326-2.881,2.215a5.321,5.321,0,0,1-1.768,1.19c-.8.327-1.79.546-2.112,1.359-.136.333-.12.715-.256,1.047-.546,1.332-2.947.89-3.552,2.183-.175.371-.164.84-.453,1.135s-.818.284-1.255.36c-1.735.284-2.581,2.292-4.065,3.236-1.25.8-2.859.78-4.2,1.4a16.065,16.065,0,0,1-2.183,1.091,10.318,10.318,0,0,1-2.532.125.682.682,0,0,0-.507.164.7.7,0,0,0-.082.546,15.316,15.316,0,0,0,9.467,11.857,3.345,3.345,0,0,1,.808.388c.758.546.889,1.784,1.746,2.182a1.806,1.806,0,0,0,1.823-.393,15.867,15.867,0,0,0,1.315-1.451,5.238,5.238,0,0,1,2.93-1.539c1.031-.164,2.183-.044,3.017-.677a9.288,9.288,0,0,0,.949-1.015,5.954,5.954,0,0,1,2.183-1.288,21.823,21.823,0,0,1,6.821-1.441c2.183-.125,4.447.076,6.515-.638a3.82,3.82,0,0,0,1.451-.818,4.367,4.367,0,0,0,.971-1.686A12.873,12.873,0,0,0,187.829,606.189Z" transform="translate(-95.205 -296.374)"/><path class="l" d="M197.985,594.19c.617-.054,1.233,0,1.85,0,.726,0,1.441-.175,2.183-.18a5.38,5.38,0,0,1,5.075,3.863.982.982,0,0,1,.033.546.387.387,0,0,1-.42.284,9.221,9.221,0,0,0-.933-1.872,5.3,5.3,0,0,0-2.794-1.943,7.254,7.254,0,0,0-3.438-.126c-.469.088-.933.213-1.4.344l-2.264.611c-.409.109-.818.224-1.217.371-.306.109-.835.546-1.135.546-.409,0-.076-.355.1-.595a2.915,2.915,0,0,1,1.451-1.053A12.215,12.215,0,0,1,197.985,594.19Z" transform="translate(-116.088 -296.636)"/><path class="o" d="M207.881,621.786c.546,1.724,1.091,3.448,1.752,5.129a43.406,43.406,0,0,0,4.54,8.272,59.6,59.6,0,0,0,3.749,4.911c1.67,1.97,3.536,3.95,4.125,6.466a32.749,32.749,0,0,1,.371,4.458,5.443,5.443,0,0,0,1.828,3.95,6.793,6.793,0,0,0,3.012.993c.753.12,1.7.158,2.09-.5a1.861,1.861,0,0,0,.207-.862l.18-2.183c.044-.469.207-1.091.677-1.091s.709.606,1.091.884a1.184,1.184,0,0,0,1.637-.546,2.766,2.766,0,0,0,.044-1.91,9.069,9.069,0,0,0-4.644-5.773,13.988,13.988,0,0,1-2.27-1.184,7.639,7.639,0,0,1-1.784-2.248c-4.131-6.793-8.278-13.641-11.186-21.013a15.545,15.545,0,0,1-1.151-4.142,26.732,26.732,0,0,1,.18-4.365,24.986,24.986,0,0,0-.7-7.8,6.128,6.128,0,0,0-.748-1.893,4.237,4.237,0,0,0-5.795-.835,5.97,5.97,0,0,0-2.3,4.213c-.131,1.468.72,3,1.151,4.365Q205.905,615.44,207.881,621.786Z" transform="translate(-120.374 -299.236)"/><path class="m" d="M233.236,564.6c.065-.693-.546-1.32-1.26-1.762a17.606,17.606,0,0,1-2.139-1.31c-.633-.546-.977-1.261-1.61-1.806a7.1,7.1,0,0,0-2.4-1.2,18.227,18.227,0,0,0-5.74-1.031,10.11,10.11,0,0,0-5.495,1.451,3.272,3.272,0,0,0-.933.868,3.819,3.819,0,0,0-.453,1.38,27.287,27.287,0,0,1-1.435,4.365,10.128,10.128,0,0,1-2.728,4.409c-1.555,1.3-3.94,2.046-4.965,3.612a1.173,1.173,0,0,0-.224,1.009c.147.393.622.66,1.053.911a14.3,14.3,0,0,1,5.828,5.577,6.466,6.466,0,0,1-.513,6.957c-.584.764-1.391,1.67-.818,2.439.868,1.168,3.863.5,4.551,1.735a2.467,2.467,0,0,1,.093,1.277c0,1.293,1.25,2.45,2.766,3.045a15.425,15.425,0,0,0,4.976.818,4.3,4.3,0,0,0,.125-3.219,1.287,1.287,0,0,1-.125-.731,1.758,1.758,0,0,1,.546-.7c1.828-1.724,1.441-4.261.344-6.308s-2.8-3.923-3.432-6.078a3.087,3.087,0,0,1,.546-3.165A11.023,11.023,0,0,1,221.357,576a5.953,5.953,0,0,0,2.183-2.728c.507-1.419.431-3.127,1.926-4.065s3.432-.633,5.009-1.239A5.368,5.368,0,0,0,233.236,564.6Z" transform="translate(-120.853 -280.045)"/><circle class="o" cx="9.074" cy="9.074" r="9.074" transform="translate(149.967 278.423)"/><path class="o" d="M350.992,573.761a11.765,11.765,0,0,0,7.53,5.266l-.682,2.477c-1.179,4.267-2.51,8.785-5.806,11.743a5.489,5.489,0,0,0-.922-4.245,16.079,16.079,0,0,0-3.077-3.219l-5.222-4.545a1.423,1.423,0,0,1-.393-.436,1.331,1.331,0,0,1,0-.993c.666-2.074,2.565-3.367,4.1-4.764a14.479,14.479,0,0,0,2.068-2.406C349.661,571.164,350.332,572.653,350.992,573.761Z" transform="translate(-183.782 -286.645)"/><path class="r" d="M356.941,588.653a4.91,4.91,0,0,1-.267,2,1.408,1.408,0,0,1-1.637.84c.191-.431-.311-.922-.78-.868a1.467,1.467,0,0,0-1.037.878,3.274,3.274,0,0,0-.3,2.03,8.3,8.3,0,0,1,.513,2.548c-.1.715-.633,1.43-.349,2.1a3.37,3.37,0,0,0,.677.807,2.292,2.292,0,0,1-.246,3.143l7.094.136a4.975,4.975,0,0,0,.878,3.443,21.678,21.678,0,0,0,16.162,10.553,1.408,1.408,0,0,0-.338,2.15,1.99,1.99,0,0,0,2.27.131,17.228,17.228,0,0,0,1.948-1.457A5.953,5.953,0,0,1,385.523,616c.889.082,1.746.366,2.635.415,2.619.142,4.873-1.746,7.377-2.515,1.839-.546,3.918-.546,5.456-1.714a2.163,2.163,0,0,0,1.015-2.106,3.433,3.433,0,0,0-.764-1.233,21.958,21.958,0,0,1-2.046-3.82,22.8,22.8,0,0,0-5.113-6.842,45.113,45.113,0,0,0-5.064-3.847,8.566,8.566,0,0,0-1.375-.824,14.094,14.094,0,0,1-1.877-.764,10.476,10.476,0,0,1-1.948-2.183c-1.4-1.637-3.558-2.384-5.287-3.672-1.157-.862-2.183-2-3.563-2.417-.671-.2-1.391-.218-2.063-.42-1.528-.464-2.641-1.822-4.142-2.368a16.76,16.76,0,0,0-3.749-.48,8.732,8.732,0,0,1-3.852-1.457,4.626,4.626,0,0,0-1.244-.731c-1.893-.546-2.046,2.957-2.226,4.18A35.031,35.031,0,0,0,356.941,588.653Z" transform="translate(-188.575 -289.8)"/><path class="o" d="M341.881,613.632c.316,3.443-2.286,6.782-1.528,10.16.164.72.469,1.4.584,2.128.316,2-.878,3.9-2.019,5.571L329.1,645.864a8.734,8.734,0,0,1-1.4,1.73c-1.877,1.664-4.682,1.49-7.143,1.992a12.227,12.227,0,0,0-4.785,2.117.311.311,0,0,0-.06.426,4.1,4.1,0,0,0,3.558,1.67c.256.338,0,.84-.355,1.091-.546.366-1.25.464-1.353,1.353a1.516,1.516,0,0,0,.175.9,2.794,2.794,0,0,0,1.719,1.19c3.389,1.037,7.05-.786,9.587-3.274s4.365-5.6,6.853-8.13c1.381-1.4,2.946-2.592,4.365-3.945a51.579,51.579,0,0,0,7.164-9.276,10.323,10.323,0,0,0,1.55-3.159c.262-1.119.142-2.308.448-3.416a12.124,12.124,0,0,1,2.346-3.82,12.694,12.694,0,0,0,2.668-8.272,7.923,7.923,0,0,0-4.834-6.859,4.327,4.327,0,0,0-2.728-.164,6.5,6.5,0,0,0-2.761,2.182l-1.861,2.15a5.1,5.1,0,0,0-1.091,1.637,1.719,1.719,0,0,0,.382,1.828" transform="translate(-171.665 -302.934)"/><path class="r" d="M367.526,592.4c-1.288.076-2.728.2-3.618,1.091a5.052,5.052,0,0,0-.906,1.43,14.123,14.123,0,0,0-1.806,5.68,25.609,25.609,0,0,0,.655,4.747c.2,1.315-.311,2.657-.409,3.989a27.238,27.238,0,0,0,5.151-1.981,17.219,17.219,0,0,1,3.017-1.566c1.533-.513,4.12.366,5.571,1.091.082-1.026-.688-2.81-.606-3.819a4.185,4.185,0,0,1,.229-1.271,7.574,7.574,0,0,1,.769-1.228,5.025,5.025,0,0,0-.453-5.9,8.134,8.134,0,0,0-5.26-2.232,22.99,22.99,0,0,0-3.678-.125" transform="translate(-192.355 -295.852)"/><path class="m" d="M319.44,553.121l-.207-1.708c1.435.366,2.794-.846,3.71-2.106s1.763-2.728,3.154-3.274c1.7-.639,3.492.382,5.113,1.222a16,16,0,0,0,5.866,1.943,4.145,4.145,0,0,1,.971.158c1.053.376,1.555,1.7,1.708,2.9a11.364,11.364,0,0,0,.627,3.547c.4.808,1.091,1.413,1.484,2.183,1.091,2.144.038,5.08,1.211,7.186l-2.908-2.663c-.267-.246-.644-.5-.933-.295s-.251.546-.349.8a1.522,1.522,0,0,1-2.068.753,5.669,5.669,0,0,1-1.85-1.691,11.307,11.307,0,0,0-4.616-3.5,5.9,5.9,0,0,0-4.884.289c-1.359.769-2.352,2.554-4.016,2.614-2.281.088-3.23-4.158-4.283-5.833a2.068,2.068,0,0,0,.6-2.576C317.928,553.018,319.407,552.859,319.44,553.121Z" transform="translate(-172.354 -274.747)"/><path class="e" d="M677.409,359.355a10.008,10.008,0,0,1-2.848.78,4.992,4.992,0,0,0,2.182-2.728,9.976,9.976,0,0,1-3.154,1.206A4.954,4.954,0,0,0,665.006,362a4.845,4.845,0,0,0,.125,1.135,14.051,14.051,0,0,1-10.226-5.195,4.982,4.982,0,0,0,1.539,6.635,4.835,4.835,0,0,1-2.254-.622v.06a4.971,4.971,0,0,0,3.984,4.873,5.155,5.155,0,0,1-1.31.174,4.823,4.823,0,0,1-.933-.093,4.982,4.982,0,0,0,4.638,3.449,9.952,9.952,0,0,1-6.166,2.128,10.661,10.661,0,0,1-1.184-.071,14.1,14.1,0,0,0,21.728-11.9v-.638A10.086,10.086,0,0,0,677.409,359.355Z" transform="translate(-325.037 -188.966)"/><path class="e" d="M664.5,545.839l1.637,4.109,10.689,11.333,3.579-3.372,2.253,2.385,2.385-2.254.136-4.633,2.979-2.816.24-8.114-9.565-10.138Zm21.553-2.27-.136,4.638-3.58,3.372-.136,4.638-2.248-2.384-2.985,2.816-9.587-10.144,11.333-10.689Z" transform="translate(-330.162 -268.616)"/><path class="e" d="M684.574,547.8l1.79-1.686,4.54,4.807-1.79,1.681Zm-4.174,3.94,1.79-1.692,4.534,4.813-1.79,1.686Z" transform="translate(-337.386 -274.873)"/><path class="e" d="M286.516,676h-17.5a1.091,1.091,0,0,0-1.091,1.091V694.6a1.091,1.091,0,0,0,1.091,1.091h8.73v-7.8H275.39v-2.87h2.4V682.9a3.739,3.739,0,0,1,4.032-3.923c1.091,0,2.259.082,2.526.12v2.652h-1.806c-1.233,0-1.473.584-1.473,1.446v1.828h2.941l-.382,2.87h-2.565v7.792h5.456a1.091,1.091,0,0,0,1.091-1.091v-17.5A1.091,1.091,0,0,0,286.516,676Z" transform="translate(-149.977 -333.888)"/><path class="e" d="M570.885,445.637a4.109,4.109,0,0,1,4.1,4.1v8.185a4.109,4.109,0,0,1-4.1,4.1H562.7a4.114,4.114,0,0,1-2.9-1.2,4.065,4.065,0,0,1-1.206-2.9v-8.185a4.109,4.109,0,0,1,4.1-4.1h8.185m0-1.637H562.7a5.756,5.756,0,0,0-5.74,5.74v8.185a5.757,5.757,0,0,0,5.74,5.74h8.185a5.757,5.757,0,0,0,5.74-5.719v-8.185a5.762,5.762,0,0,0-5.74-5.762Z" transform="translate(-281.302 -228.479)"/><path class="e" d="M576.22,452.476a1.222,1.222,0,1,1,.87-.358A1.233,1.233,0,0,1,576.22,452.476Zm-5.309.8a3.274,3.274,0,1,1-3.274,3.274,3.274,3.274,0,0,1,3.274-3.274m0-1.637a4.911,4.911,0,1,0,4.911,4.911A4.911,4.911,0,0,0,570.911,451.641Z" transform="translate(-285.409 -231.21)"/><path class="e" d="M1024.963,610.263a3.987,3.987,0,0,0-3.819-4.158c-2.843-.136-5.735-.185-8.692-.185h-.922c-2.952,0-5.855.049-8.692.185a3.989,3.989,0,0,0-3.787,4.169c-.131,1.828-.186,3.651-.18,5.457s.049,3.65.175,5.457a4,4,0,0,0,3.787,4.18c2.979.136,6.04.2,9.151.2s6.166-.055,9.156-.2a4.021,4.021,0,0,0,3.82-4.18c.12-1.828.18-3.65.174-5.484s-.049-3.645-.169-5.457ZM1009.5,620.778V610.705l7.432,5.031Z" transform="translate(-482.082 -302.047)"/><path class="e" d="M540.372,260a11.459,11.459,0,0,0-4.605,22,10.211,10.211,0,0,1,.2-2.635c.224-.933,1.479-6.259,1.479-6.259a4.364,4.364,0,0,1-.371-1.812c0-1.7.988-2.974,2.215-2.974a1.537,1.537,0,0,1,1.55,1.724,24.734,24.734,0,0,1-1.015,4.071,1.773,1.773,0,0,0,1.812,2.21c2.183,0,3.64-2.794,3.64-6.106,0-2.515-1.7-4.392-4.774-4.392a5.457,5.457,0,0,0-5.653,5.495,3.3,3.3,0,0,0,.759,2.254.546.546,0,0,1,.164.638c-.055.213-.18.72-.235.922a.4.4,0,0,1-.578.289c-1.6-.655-2.352-2.412-2.352-4.365,0-3.274,2.728-7.17,8.185-7.17,4.365,0,7.268,3.17,7.268,6.575,0,4.5-2.5,7.868-6.2,7.868a3.274,3.274,0,0,1-2.8-1.43s-.671,2.641-.813,3.154a9.464,9.464,0,0,1-1.151,2.461,11.63,11.63,0,0,0,3.274.469,11.491,11.491,0,1,0,0-22.983Z" transform="translate(-268.512 -144.879)"/><path class="s" d="M705.83,708.811c-.442-1.872-.709-3.508-.709-3.508a7.268,7.268,0,0,0-.813-3.563v-.513h0v-3.765a12.441,12.441,0,0,1,.95-1.97c.677-1.178,0-5.511,0-5.511s-2.51-6.106-1.9-9.98-5.151-17.2-5.151-17.2a16.991,16.991,0,0,1,.546-3.82,2.755,2.755,0,0,0,.071-.8.573.573,0,0,0,0-.1v.033c-.087-2.554-2.106-7.344-2.106-7.344l.273-9.123a26.868,26.868,0,0,0-.813-12.61c-.737-2.521-1.206-4.535-1.506-6.095-.033-.175-.066-.344-.093-.507,4.327-.66,7.639-1.211,7.639-1.211s-2.51-10.5-4.207-12.343-3.05-7.612-3.05-7.612-.884-7.421.546-9.587,1.637-5.909,1.637-5.909,3.274-2.363,3.661-3.416a17.3,17.3,0,0,0,1.091-4.66c0-1.249-.409-2.363-.273-3.023s-.949-3.148-.4-4.332a3.171,3.171,0,0,0,.213-1.14.067.067,0,0,0,0-.033h0a16.219,16.219,0,0,0-.289-3.083,8.732,8.732,0,0,0-3.22-1.724l-.071-.278-.186-.737a2.491,2.491,0,0,0-.322-.191v-1.364l.507-2.4c1-4.163-4.562-4.785-4.562-4.785a2.935,2.935,0,0,0-1.577-1.386c-1.091-.393-.186,6.275.338,6.7a21.714,21.714,0,0,1,2.182,3.438h0l.1.169a2.221,2.221,0,0,0-.256.267l.213,1.446.033.224a5.937,5.937,0,0,0-.889,1.511,3.225,3.225,0,0,1,.813,2.368,7.421,7.421,0,0,0,.338,2.886c-.06-.071-.775-.846-1.49-.655s-2.728.786-2.728.786-1.5.262-1.359.589-1.015,1.773-1.015,1.773l-4.011-3.82c-.044-.115-.082-.229-.12-.344a9.163,9.163,0,0,1-.344-1.637,8.906,8.906,0,0,0,1.277-.409,2.764,2.764,0,0,0,1.091-.709,4.331,4.331,0,0,0,.644-1.73,24.036,24.036,0,0,1,1.49-3.318,10.791,10.791,0,0,0,.775-5.92,3.937,3.937,0,0,0-.611-1.746c-.655-.9-1.844-1.266-2.728-1.986s-1.419-1.812-2.428-2.352a4.785,4.785,0,0,0-3.045-.262,16.275,16.275,0,0,0-5.68,2.063,2.921,2.921,0,0,1-1.9.628,2.57,2.57,0,0,1-1.37-1,.273.273,0,0,1,0-.06l-.049-.049a7.186,7.186,0,0,0-.622,3v.644a1.25,1.25,0,0,1,0,.142h0a.965.965,0,0,1-.033.213,1.543,1.543,0,0,1-.371.546,2.421,2.421,0,0,0-.327.447.483.483,0,0,1,.055-.164,2.367,2.367,0,0,0-.42,1.26,1.254,1.254,0,0,0,.306.906,4.364,4.364,0,0,0,.649.546,7.63,7.63,0,0,0-.115,1.331,7.76,7.76,0,0,0,3.776,6.619l.136.344a9.54,9.54,0,0,1,.726,4.365.736.736,0,0,1-.049.322l-.142.164h0s-6.624.066-8.185-1.348-3.934,3.449-3.934,3.449-2.374.464-2.848,0-3.274-.066-3.274-.066a6,6,0,0,0-4.136-1.506,12.152,12.152,0,0,0-3.039-1.692h0l-.076-.027h0a3.4,3.4,0,0,0-1.5-.186,29.5,29.5,0,0,1-4.2-4.136c-.928-1.44-5.457-6.8-5.495-6.831v-.256l-.055-.78a3.036,3.036,0,0,1-.4.038.949.949,0,0,0-.093-.273,14.741,14.741,0,0,0-.96-2.183s0-.982.289-1.228-.12-3.858-.12-3.858-2.936-6.859-5.56-1.741c0,0-4.971,3.312-.8,7.175,0,0,1.637.8,1.9,1.441.158.415.72,1.577,1.091,2.346l.169.344-.049.038.065.644v.251c-.786.442-1.315.884-1.189,1.222a7.189,7.189,0,0,1,.475,1.773s5.767,7.219,6.515,10.307c0,0,15.464,9.189,20.549,9.849l-.878,4.594a36.312,36.312,0,0,0-.2,3.743c.066.982-.611,5.457-.611,5.457s-.884,6.548-1.637,7.481-.611,4.862-.611,4.862a32.784,32.784,0,0,1-1.015,5.577,14.173,14.173,0,0,0-.2,5.582s-2.581,5.909,3.6,1.9c0,0,3.028-.186,6.548-.306v1.8c-.044,3.383-.065,8.048.087,11.579.273,6.237,2.183,18.552,2.183,18.552v6.2a8.67,8.67,0,0,0-.175,1.773,11.489,11.489,0,0,0,1.67,6.209l.475,4.136a17.134,17.134,0,0,1,1.135,4.365,2.16,2.16,0,0,1-.049.393,2.929,2.929,0,0,0-.055.633,35.455,35.455,0,0,0,1.091,6.373s.071,4.529.748,4.791c.578.224-.775,2.614-1.179,3.274a1.126,1.126,0,0,1-.027-.131c-.049.087-.082.136-.082.136a3.181,3.181,0,0,0-.213,1.146,1.637,1.637,0,0,0,.753,1.593c1.288.791,1.981,1.446.889,1.708a10.826,10.826,0,0,0-1.195.251c0-.049-.044-.1-.06-.153a.731.731,0,0,0-.426.758,3.357,3.357,0,0,0,.409,1.533,16.365,16.365,0,0,0,1.833,3.35l.546-.06a2.582,2.582,0,0,1-.306.546,2.112,2.112,0,0,1-.764.677,2.444,2.444,0,0,1-.928.322,2.587,2.587,0,0,0-1.921.933,2.006,2.006,0,0,0,.235,3.116l4.851,1.67s8.343,1.091,7.9-.786-.709-3.509-.709-3.509a7.4,7.4,0,0,0-.682-3.323,3.275,3.275,0,0,0-.295-.491l.295-.033s.611-4.136,1.424-4.911c.191-.18.235-.322.186-.431.087-.224-.125-.355-.4-.431l-.06.164a4.09,4.09,0,0,0-.807-.087s-.273-2.183.606-2.958a.835.835,0,0,0,.175-.644,3.706,3.706,0,0,0-.093-.884l-.033.054a31.533,31.533,0,0,0-1.948-5.091,6.293,6.293,0,0,1,.474-2.761c.54-.791-.065-10.7-.065-10.7a32.444,32.444,0,0,0-.409-7.022c-.611-2.232.748-4.862.748-4.862V663s-.033-.295-.082-.758v.049c-.136-1.271-.393-3.569-.584-4.627-.273-1.511.065-8.73.065-8.73l1.222-3.083,2.183,5.315,2.3,7.093a6.028,6.028,0,0,1,1.173,3.012v.224a3.582,3.582,0,0,0,0,.475,4.234,4.234,0,0,0,.7,2.526s.611,3.35,1.561,4.2a3.782,3.782,0,0,1,.949,2.494,41.618,41.618,0,0,0,1.7,5.713,8.38,8.38,0,0,1,.475,3.274h0v.18s.158,1.735.153,3.2v.507a5.1,5.1,0,0,1-.142,1.179v-.175a12.147,12.147,0,0,0-.349,3.028c-.033,1.746.235,3.82,1.293,5.025,1.833,2.1,2.985,1.839,2.985,1.839s-.884,2.625-1.97,3.154a.652.652,0,0,0-.115.071.3.3,0,0,0-.027-.153,1.281,1.281,0,0,0-.316.982,7.029,7.029,0,0,0,1.342,3.891,2.149,2.149,0,0,0,.917.546l-.169.1a3.815,3.815,0,0,1-.377.18,1.779,1.779,0,0,1-.546.142,2.587,2.587,0,0,0-1.921.933,2.006,2.006,0,0,0,.234,3.116l4.851,1.67S706.25,710.71,705.83,708.811Z" transform="translate(-313.8 -275.837)"/><path class="t" d="M707.215,840.537l-4.7-1.67a2.041,2.041,0,0,1-.224-3.116,2.472,2.472,0,0,1,1.855-.933,2.3,2.3,0,0,0,.9-.322,2.127,2.127,0,0,0,.742-.677,3.453,3.453,0,0,0,.546-1.817s5.156-1.506,6.548,0a3.852,3.852,0,0,1,.627.917,7.639,7.639,0,0,1,.655,3.323s.262,1.637.688,3.509S707.215,840.537,707.215,840.537Z" transform="translate(-347.052 -404.463)"/><path class="t" d="M749.326,836.335l-4.692-1.67a2.032,2.032,0,0,1-.229-3.11,2.467,2.467,0,0,1,1.861-.938,1.694,1.694,0,0,0,.546-.142,2.77,2.77,0,0,0,.36-.18,2.97,2.97,0,0,0,1.282-2.494s5.151-1.511,6.548,0a3.652,3.652,0,0,1,.491.671,7.5,7.5,0,0,1,.791,3.569s.262,1.637.687,3.509S749.326,836.335,749.326,836.335Z" transform="translate(-366.185 -402.553)"/><path class="f" d="M716.319,832a3.859,3.859,0,0,1,.627.917h0l-7.726.895a3.454,3.454,0,0,0,.546-1.817S714.911,830.5,716.319,832Z" transform="translate(-350.481 -404.462)"/><path class="f" d="M758.008,828.423v1.446c-1.2,1.981-7.012,1.55-8.7.546a2.768,2.768,0,0,0,.36-.18,2.97,2.97,0,0,0,1.282-2.494s5.151-1.511,6.548,0a3.643,3.643,0,0,1,.507.682Z" transform="translate(-368.696 -402.526)"/><path class="m" d="M734.259,754.239a12.9,12.9,0,0,0-.922,1.97V761.4c-1.31,2.182-8.141,1.446-9.058.262s-1.9-4.267-.857-4.791,1.9-3.154,1.9-3.154-1.091.262-2.886-1.839-1.244-6.761-.917-7.879a23.36,23.36,0,0,0,0-4.856s.065-2.625-.458-3.481a43.4,43.4,0,0,1-1.637-5.713,3.877,3.877,0,0,0-.917-2.494c-.917-.857-1.511-4.2-1.511-4.2a4.306,4.306,0,0,1-.655-2.821,5.742,5.742,0,0,0-1.119-3.416l-2.232-7.093-2.1-5.32-1.178,3.083s-.333,7.224-.066,8.73.655,5.511.655,5.511a8.086,8.086,0,0,0-.72,4.862,33.2,33.2,0,0,1,.393,7.023s.589,9.915.066,10.706a6.331,6.331,0,0,0-.458,2.728s2.69,5.779,1.833,6.548-.589,2.957-.589,2.957,1.839,0,1.053.786-1.38,4.911-1.38,4.911l-7.95,1a16.807,16.807,0,0,1-1.779-3.35c-1.048-2.428.2-2.183,1.255-2.428s.387-.917-.862-1.708-.546-2.559-.546-2.559,1.9-3.219,1.25-3.481-.726-4.791-.726-4.791-1.31-5.386-.982-6.826-1.053-4.911-1.053-4.911l-.458-4.136a11.371,11.371,0,0,1-1.419-7.825v-6.39s-1.839-12.343-2.106-18.552c-.164-3.994-.12-9.445-.066-12.85.033-1.9.066-3.17.066-3.17L723.5,677.52a23.5,23.5,0,0,0,.518,4.212c.289,1.555.742,3.574,1.451,6.095a27.719,27.719,0,0,1,.791,12.6L726,709.555s2.494,6.106,1.97,8.185a17.334,17.334,0,0,0-.546,3.82s5.582,13.33,4.993,17.2,1.844,9.953,1.844,9.953S734.913,753.082,734.259,754.239Z" transform="translate(-344.024 -334.579)"/><path class="p" d="M737.22,754.481l8.61-1.151S740.963,758.317,737.22,754.481Z" transform="translate(-363.202 -369.023)"/><path class="f" d="M749.441,737.87s.3,3.05-1.572,4.2C747.87,742.072,751.215,741.548,749.441,737.87Z" transform="translate(-368.041 -361.998)"/><path class="f" d="M741.3,720.06s-7.214,5.942-9.822,5.457S741.3,720.06,741.3,720.06Z" transform="translate(-360.431 -353.906)"/><path class="f" d="M712.9,760.55s-5.456,1.25-5.642,3.449S712.9,760.55,712.9,760.55Z" transform="translate(-349.587 -372.303)"/><path class="p" d="M714.867,810.72s-7.743,1.446-5.544,2.434a37.526,37.526,0,0,0,5.811,1.768S717.627,815.052,714.867,810.72Z" transform="translate(-350.349 -395.098)"/><g class="u" transform="translate(350.956 345.648)"><path d="M705.954,817.064a1.534,1.534,0,0,1-.709-1.124l-.076.142s-.726,1.768.546,2.559c.142.087.278.18.4.267.229-.044.48-.077.715-.137C707.869,818.532,707.2,817.872,705.954,817.064Z" transform="translate(-699.502 -743.117)"/><path d="M724.763,815.953c.213-.2.2-.7.076-1.353a3.663,3.663,0,0,0-.442,1.9A1.458,1.458,0,0,1,724.763,815.953Z" transform="translate(-708.331 -742.508)"/><path d="M722.426,757.22a9.04,9.04,0,0,0-.546,2.412,9.538,9.538,0,0,1,.6-1.637A4.881,4.881,0,0,0,722.426,757.22Z" transform="translate(-707.189 -716.438)"/><path d="M755.272,750.3a3.113,3.113,0,0,0,.071-.72c-.1.491-.164.949-.213,1.348C755.174,750.721,755.217,750.513,755.272,750.3Z" transform="translate(-722.296 -712.967)"/><path d="M722.39,798.787a4.132,4.132,0,0,0,.2-1.457,4.808,4.808,0,0,0-.376,1.839,1.765,1.765,0,0,1,.18-.382Z" transform="translate(-707.339 -734.662)"/><path d="M716.128,822.68a26.275,26.275,0,0,0-.9,4.032l-7.939.922a16.437,16.437,0,0,1-1.779-3.35,5.861,5.861,0,0,1-.224-.578c-.475.218-.666.709-.038,2.183a16.256,16.256,0,0,0,1.779,3.345l7.934-.922s.595-4.136,1.38-4.911C716.729,822.98,716.483,822.784,716.128,822.68Z" transform="translate(-699.451 -746.18)"/><path d="M701.146,747.189s.065,4.534.72,4.8h0c.333-.747.546-1.457.256-1.577-.655-.262-.72-4.791-.72-4.791s-1.315-5.385-.982-6.832-1.053-4.911-1.053-4.911l-.458-4.136a11.393,11.393,0,0,1-1.446-7.814v-6.379s-1.839-12.343-2.1-18.579c-.169-3.994-.12-9.445-.066-12.85V682.48h-.224s-.033,1.26-.065,3.17c-.055,3.4-.1,8.856.065,12.85.262,6.237,2.1,18.579,2.1,18.579v6.368a11.355,11.355,0,0,0,1.479,7.879l.458,4.136s1.381,3.476,1.048,4.911S701.146,747.189,701.146,747.189Z" transform="translate(-694.956 -682.48)"/><path d="M747.825,825.911a7.641,7.641,0,0,1-1.255-3.121c-.813.731.12,3.574.993,4.7s7.748,1.9,9.063-.267v-1.25C754.847,827.734,748.7,827.03,747.825,825.911Z" transform="translate(-718.265 -746.23)"/><path d="M766.657,814.86a13.133,13.133,0,0,0-.917,1.97v.922c.147-.338.36-.786.655-1.315a3.981,3.981,0,0,0,.289-1.637Z" transform="translate(-727.116 -742.599)"/><path d="M746.741,808.732a12.636,12.636,0,0,0,.649-1.561s-1.091.262-2.892-1.839c-1.288-1.528-1.359-4.414-1.179-6.3-.327,1.119-.857,5.778.917,7.879A4.628,4.628,0,0,0,746.741,808.732Z" transform="translate(-716.777 -735.434)"/><path d="M733.945,760.084a36.113,36.113,0,0,1,.131,3.891c.044-.256.093-.464.131-.611a23.02,23.02,0,0,0,0-4.856s.066-2.63-.458-3.481a43.155,43.155,0,0,1-1.637-5.713,3.878,3.878,0,0,0-.917-2.494c-.917-.857-1.511-4.2-1.511-4.2a4.3,4.3,0,0,1-.66-2.821,5.755,5.755,0,0,0-1.091-3.416l-2.232-7.093L723.572,724l-1.184,3.083s0,.387-.038,1l.96-2.5,2.1,5.315,2.232,7.093a5.617,5.617,0,0,1,1.091,3.41,4.316,4.316,0,0,0,.682,2.794s.589,3.345,1.506,4.2a3.9,3.9,0,0,1,.922,2.494,40.248,40.248,0,0,0,1.637,5.713C734.027,757.454,733.945,760.084,733.945,760.084Z" transform="translate(-707.402 -701.344)"/></g><path class="v" d="M748.32,563.643l-.491,2.4.027,1.091v.786l-2.728.284-.306-.546h0a23.219,23.219,0,0,0-2.128-3.438c-.507-.426-1.408-7.094-.328-6.7a2.86,2.86,0,0,1,1.528,1.381S749.291,559.474,748.32,563.643Z" transform="translate(-365.31 -280.052)"/><path class="f" d="M750.364,575.638l-2.728.284-.306-.546h0a2.412,2.412,0,0,1,3.023-.5Z" transform="translate(-367.796 -287.796)"/><path class="w" d="M750.911,577.134l-3.607.84-.076-.546-.207-1.446a2.483,2.483,0,0,1,3.5-.48l.18.737Z" transform="translate(-367.655 -287.994)"/><path class="v" d="M639.627,559.642l-3.852,2.074-.349-.731c-.371-.769-.917-1.926-1.091-2.341-.229-.638-1.839-1.446-1.839-1.446-4.038-3.858.769-7.17.769-7.17,2.548-5.124,5.386,1.735,5.386,1.735s.393,3.618.115,3.858-.278,1.233-.278,1.233a15.01,15.01,0,0,1,.933,2.183C639.567,559.418,639.627,559.642,639.627,559.642Z" transform="translate(-314.887 -275.789)"/><path class="f" d="M643.411,568.724l-3.852,2.073-.349-.731c.546-.453,2.472-2.019,3.1-1.948a4.528,4.528,0,0,0,.917,0C643.351,568.5,643.411,568.724,643.411,568.724Z" transform="translate(-318.672 -284.871)"/><path class="w" d="M643.9,570.109l-4.333,2.134-.087-.933-.06-.638s2.51-2.155,3.274-2.073a4.035,4.035,0,0,0,1.135,0l.049.78Z" transform="translate(-318.767 -285.089)"/><path class="v" d="M721.29,585.735s-18.9,2.134-15.365.988a4.741,4.741,0,0,0,3.645-4.1,9.981,9.981,0,0,0-.7-4.365,18.979,18.979,0,0,0-1.691-3.416s14.443-7.945,11.557-.72a11.329,11.329,0,0,0-.818,3.421,9.645,9.645,0,0,0,.366,3.459A10.318,10.318,0,0,0,721.29,585.735Z" transform="translate(-348.784 -286.222)"/><path class="f" d="M720.137,574.119a11.328,11.328,0,0,0-.818,3.421c-1.364,1.141-2.854,1.091-4.769,1.091-1.473,0-3.1.36-4.278-.349a18.96,18.96,0,0,0-1.691-3.416S723.023,566.894,720.137,574.119Z" transform="translate(-350.19 -286.223)"/><circle class="v" cx="7.814" cy="7.814" r="7.814" transform="translate(356.289 277.261)"/><path class="f" d="M721.29,593.31s-18.9,2.133-15.365.988a4.741,4.741,0,0,0,3.645-4.1,10.255,10.255,0,0,1,4.043-2.144,5.636,5.636,0,0,1,3.421-.054,4.556,4.556,0,0,1,1.244.546A10.318,10.318,0,0,0,721.29,593.31Z" transform="translate(-348.784 -293.797)"/><path class="f" d="M751.083,578.069l-3.607.84-.077-.546a3.187,3.187,0,0,1,3.47-1.19Z" transform="translate(-367.828 -288.929)"/><path class="f" d="M643.95,570.761l-4.333,2.133-.087-.933a31.891,31.891,0,0,1,4.365-1.932Z" transform="translate(-318.817 -285.741)"/><path class="f" d="M724.047,681.682c-7.317,1.151-17.734,2.657-19.387,2.155-1.369-.42-5.746-.376-9.56-.245.033-1.9.065-3.17.065-3.17l28.374-2.952a23.5,23.5,0,0,0,.507,4.212Z" transform="translate(-344.065 -334.556)"/><path class="r" d="M705.143,631.318s-24.1,4.136-26.682,3.345-15.862.071-15.862.071c-5.975,4-3.476-1.9-3.476-1.9a14.236,14.236,0,0,1,.2-5.582,34.192,34.192,0,0,0,.982-5.582s-.131-3.94.589-4.856,1.577-7.486,1.577-7.486.66-4.463.595-5.457.2-3.738.2-3.738l.851-4.6c-4.911-.655-19.895-9.849-19.895-9.849-.72-3.083-6.3-10.307-6.3-10.307a7.6,7.6,0,0,0-.458-1.773c-.393-1.048,5.516-3.148,5.516-3.148s4.4,5.385,5.315,6.826a30.037,30.037,0,0,0,4.071,4.136,3.181,3.181,0,0,1,1.446.191h.076a11.646,11.646,0,0,1,2.936,1.686,5.691,5.691,0,0,1,4.005,1.512s2.7-.393,3.154.065,2.728,0,2.728,0,2.3-4.856,3.82-3.448,7.917,1.348,7.917,1.348c.857-1.135,2.93-1.948,4.234-2.368a5.637,5.637,0,0,1,3.421-.055,4.233,4.233,0,0,1,1.353.655l3.885,3.819s1.092-1.446.988-1.773,1.315-.589,1.315-.589,1.9-.589,2.625-.791,1.386.589,1.441.655a7.689,7.689,0,0,1-.328-2.887,3.274,3.274,0,0,0-.786-2.363c2.319-5.609,7.508-.862,7.508-.862s.589,3.083.065,4.267.546,3.678.393,4.332.262,1.773.262,3.018a17.947,17.947,0,0,1-1.048,4.665c-.4,1.048-3.547,3.41-3.547,3.41s-.2,3.743-1.577,5.909-.546,9.587-.546,9.587,1.31,5.779,2.952,7.639S705.143,631.318,705.143,631.318Z" transform="translate(-317.866 -285.932)"/><path class="f" d="M694.415,599.517s-.72-2.183-1.38-2.368a15.55,15.55,0,0,1-1.9-.851l.426-.808s2.466.677,2.859,1.4A5.7,5.7,0,0,1,694.415,599.517Z" transform="translate(-342.262 -297.308)"/><path class="f" d="M668.029,592.653c-.131.66-5.969,1.25-5.969,1.25l2.952-2.963h0l.077.027h0A11.641,11.641,0,0,1,668.029,592.653Z" transform="translate(-329.054 -295.241)"/><circle class="x" cx="0.524" cy="0.524" r="0.524" transform="translate(321.526 287.88)"/><circle class="x" cx="0.524" cy="0.524" r="0.524" transform="translate(322.197 288.933)"/><circle class="x" cx="0.524" cy="0.524" r="0.524" transform="translate(322.857 289.899)"/><circle class="x" cx="0.524" cy="0.524" r="0.524" transform="translate(323.545 290.952)"/><circle class="x" cx="0.426" cy="0.426" r="0.426" transform="translate(385.531 290.99)"/><circle class="x" cx="0.426" cy="0.426" r="0.426" transform="translate(385.596 291.961)"/><circle class="x" cx="0.426" cy="0.426" r="0.426" transform="translate(385.651 292.927)"/><path class="f" d="M697.21,635.47c-.06-.076,14.733,18.612,26.23,7.814C723.439,643.283,705.28,645.744,697.21,635.47Z" transform="translate(-345.024 -315.473)"/><path class="f" d="M681.63,653.28s8.856.24,9.784,2.788v2.652a1.7,1.7,0,0,1-1.637,0c-.895-.48-6.248-3.2-8.136-1.893Z" transform="translate(-337.945 -323.565)"/><path class="r" d="M681.93,653.28s8.469.229,9.358,2.657v2.532a1.638,1.638,0,0,1-1.577,0c-.857-.464-6-3.056-7.781-1.806Z" transform="translate(-338.082 -323.565)"/><path class="f" d="M690.49,618a28.519,28.519,0,0,0,3.432,5.888,23,23,0,0,0,5.38,5.195S690.637,619.239,690.49,618Z" transform="translate(-341.971 -307.536)"/><path class="f" d="M685.18,599.18s1.479,6.379,5.282,8.545Z" transform="translate(-339.558 -298.985)"/><path class="f" d="M680.889,600.358c-.038-.12-1.315,5.042,4.911,7.9C685.8,608.259,683.17,607.364,680.889,600.358Z" transform="translate(-337.548 -299.519)"/><path class="f" d="M751.9,592.516a45.69,45.69,0,0,1,3.929,2.952S753.77,592.386,751.9,592.516Z" transform="translate(-369.87 -295.956)"/><path class="t" d="M709.771,569.754a1.663,1.663,0,0,0,.606,1.058,1.7,1.7,0,0,0,.737.164,15.957,15.957,0,0,0,7.094-.666,2.64,2.64,0,0,0,1.091-.715,4.249,4.249,0,0,0,.578-1.719,26.8,26.8,0,0,1,1.446-3.318,11.148,11.148,0,0,0,.769-5.958,3.989,3.989,0,0,0-.595-1.746c-.633-.9-1.784-1.266-2.619-1.986s-1.375-1.817-2.346-2.357a4.562,4.562,0,0,0-2.946-.262,15.566,15.566,0,0,0-5.5,2.068,2.724,2.724,0,0,1-1.839.628,2.528,2.528,0,0,1-1.353-1.037,7.268,7.268,0,0,0-.584,3.4,1.006,1.006,0,0,1-.366,1.059,1.986,1.986,0,0,0-.376,2.45c.256.3.644.464.889.769.442.546.289,1.337.278,2.041a1.09,1.09,0,0,0,.175.693,1.015,1.015,0,0,0,.966.229,2.642,2.642,0,0,1,1.026-.1,1.73,1.73,0,0,1,.895.688A12.478,12.478,0,0,1,709.771,569.754Z" transform="translate(-347.78 -277.602)"/><g class="y" transform="translate(355.441 281.037)"><path d="M719.45,574.426a2.579,2.579,0,0,1-1.091.709c-2.183.922-4.682.813-7.061.666a1.605,1.605,0,0,1-.737-.164,1.637,1.637,0,0,1-.611-1.053,12.179,12.179,0,0,0-1.992-4.622,1.7,1.7,0,0,0-.895-.688,2.642,2.642,0,0,0-1.026.1,1.015,1.015,0,0,1-.966-.229,1.057,1.057,0,0,1-.169-.693c0-.7.158-1.5-.284-2.041-.246-.306-.633-.469-.89-.769a1.539,1.539,0,0,1-.147-1.572,1.8,1.8,0,0,0-.115,2.1c.256.3.644.464.889.769.442.546.289,1.337.278,2.041a1.091,1.091,0,0,0,.175.693,1.01,1.01,0,0,0,.966.229,2.638,2.638,0,0,1,1.026-.1,1.73,1.73,0,0,1,.895.688,12.388,12.388,0,0,1,1.992,4.622,1.665,1.665,0,0,0,.606,1.058,1.708,1.708,0,0,0,.737.164,15.963,15.963,0,0,0,7.094-.666,2.68,2.68,0,0,0,1.091-.715,2.075,2.075,0,0,0,.338-.633A.392.392,0,0,1,719.45,574.426Z" transform="translate(-703.176 -564.07)"/></g><path class="f" d="M712.62,592.975s9.762,1.293,10.64-.175" transform="translate(-352.025 -296.086)"/><path class="f" d="M747.4,585.72s5.418,0,6.613,2.041" transform="translate(-367.828 -292.869)"/></g></svg>