<svg xmlns="http://www.w3.org/2000/svg" width="15.911" height="11.81" viewBox="0 0 15.911 11.81"><defs><style>.a{fill:#fff;}</style></defs><g transform="translate(0 -54.82)"><g transform="translate(0 54.82)"><path class="a" d="M1.527,58.46q.3.2,1.82,1.2t2.326,1.531l.377.256q.289.2.479.319t.462.273a2.754,2.754,0,0,0,.511.226,1.481,1.481,0,0,0,.444.075h.018a1.482,1.482,0,0,0,.444-.075,2.756,2.756,0,0,0,.511-.226q.271-.151.462-.273t.479-.319q.288-.2.377-.256l4.155-2.726a4.106,4.106,0,0,0,1.083-1.032,2.133,2.133,0,0,0,.435-1.266,1.252,1.252,0,0,0-.422-.948,1.414,1.414,0,0,0-1-.394H1.421a1.3,1.3,0,0,0-1.052.436A1.632,1.632,0,0,0,0,56.346a1.9,1.9,0,0,0,.488,1.145A4.3,4.3,0,0,0,1.527,58.46Z" transform="translate(0 -54.82)"/><path class="a" d="M15.023,185.167q-2.912,1.862-4.422,2.894-.506.352-.821.549a5.188,5.188,0,0,1-.839.4,2.682,2.682,0,0,1-.977.206H7.947a2.683,2.683,0,0,1-.977-.206,5.191,5.191,0,0,1-.839-.4q-.315-.2-.821-.549-1.2-.83-4.413-2.894a4.64,4.64,0,0,1-.9-.73v6.66a1.257,1.257,0,0,0,.417.948,1.409,1.409,0,0,0,1,.394H14.49a1.409,1.409,0,0,0,1-.394,1.257,1.257,0,0,0,.417-.948v-6.66A4.825,4.825,0,0,1,15.023,185.167Z" transform="translate(0 -180.629)"/></g></g></svg>