<svg width="879" height="262" viewBox="0 0 879 262" fill="none" xmlns="http://www.w3.org/2000/svg">
<path d="M0 261.734V111.734L79.5 37.7341C123.1 4.53407 161.26 0.734077 180.5 0.73407C216 0.734057 277 22.2341 288 28.7341C296.8 33.9341 354.667 64.5674 382.5 79.2341C449.5 111.734 483.667 104.234 519 111.734C547 117.677 626.431 100.5 676.5 100.5C701.5 100.5 761.5 108.5 785.5 114C833.5 125 865 152.067 878.5 173.234V261.734H0Z" fill="#6159E5"/>
<path d="M878.703 262V200C856.715 200 804.839 201.999 779 198.5C731 192 655.5 146.5 625.644 125.506C565.678 65.6889 514.374 55.0838 496.217 57.2584C455.84 52.8424 378.451 109.615 344.804 138.553C294.033 184.319 214.378 204.793 180.897 209.309C146.517 214.528 45.9738 181.375 0 164.146V262H878.703Z" fill="#6860EB"/>
</svg>
