<svg xmlns="http://www.w3.org/2000/svg" width="9.272" height="9.272" viewBox="0 0 9.272 9.272"><defs><style>.a{fill:#7e76f9;stroke:#7e76f9;stroke-width:0.4px;}</style></defs><g transform="translate(0.2 0.2)"><path class="a" d="M6.3,0H2.577A2.58,2.58,0,0,0,0,2.577V6.3A2.58,2.58,0,0,0,2.577,8.872H6.3A2.58,2.58,0,0,0,8.872,6.3V2.577A2.58,2.58,0,0,0,6.3,0ZM8.179,6.3A1.886,1.886,0,0,1,6.3,8.179H2.577A1.886,1.886,0,0,1,.693,6.3V2.577A1.886,1.886,0,0,1,2.577.693H6.3A1.886,1.886,0,0,1,8.179,2.577Z"/><g transform="translate(2.045 2.045)"><path class="a" d="M120.391,118a2.391,2.391,0,1,0,2.391,2.391A2.394,2.394,0,0,0,120.391,118Zm0,4.09a1.7,1.7,0,1,1,1.7-1.7A1.7,1.7,0,0,1,120.391,122.09Z" transform="translate(-118 -118)"/></g><g transform="translate(6.516 1.664)"><circle class="a" cx="0.347" cy="0.347" r="0.347"/></g></g></svg>