<svg xmlns="http://www.w3.org/2000/svg" width="16.808" height="16.808" viewBox="0 0 16.808 16.808"><defs><style>.a{fill:#fff;}</style></defs><g transform="translate(0 16.808) rotate(-90)"><g transform="translate(0 0)"><path class="a" d="M11.926,0H4.882A4.888,4.888,0,0,0,0,4.882v7.043a4.888,4.888,0,0,0,4.882,4.882h7.043a4.888,4.888,0,0,0,4.882-4.882V4.882A4.888,4.888,0,0,0,11.926,0Zm3.569,11.926a3.573,3.573,0,0,1-3.569,3.569H4.882a3.573,3.573,0,0,1-3.569-3.569V4.882A3.573,3.573,0,0,1,4.882,1.313h7.043a3.573,3.573,0,0,1,3.569,3.569Z"/></g><g transform="translate(3.874 3.874)"><path class="a" d="M4.53,0a4.53,4.53,0,1,0,4.53,4.53A4.535,4.535,0,0,0,4.53,0Zm0,7.748A3.217,3.217,0,1,1,7.748,4.53,3.221,3.221,0,0,1,4.53,7.748Z"/></g><g transform="translate(12.343 3.152)"><circle class="a" cx="0.657" cy="0.657" r="0.657"/></g></g></svg>