<svg xmlns="http://www.w3.org/2000/svg" width="13.962" height="20.943" viewBox="0 0 13.962 20.943"><defs><style>.a{fill:#7e76f9;}</style></defs><g transform="translate(0)"><g transform="translate(0)"><path class="a" d="M42.05,0a6.987,6.987,0,0,0-6.981,6.978v6.988a6.981,6.981,0,0,0,13.962,0V6.978A6.987,6.987,0,0,0,42.05,0Zm6.205,13.966a6.205,6.205,0,0,1-12.411,0V6.978a6.205,6.205,0,0,1,12.411,0Z" transform="translate(-35.069 0)"/><path class="a" d="M101.7,23.379a.388.388,0,0,0-.388.388v3.512a.388.388,0,1,0,.776,0V23.767A.388.388,0,0,0,101.7,23.379Z" transform="translate(-94.717 -21.052)"/></g></g></svg>