<svg xmlns="http://www.w3.org/2000/svg" width="14.92" height="14.925" viewBox="0 0 14.92 14.925"><defs><style>.a{fill:#fff;}</style></defs><g transform="translate(-0.003)"><path class="a" d="M4.688,4.941,1.242,1.493,2.576.157A.529.529,0,0,1,3.322.15L6.007,2.838a.531.531,0,0,1,0,.75l-.588.587-.547.547A1.507,1.507,0,0,0,4.688,4.941Zm2.835,5.616c-.564-.486-1.105-1-1.631-1.525S4.855,7.964,4.368,7.4A1.7,1.7,0,0,1,4.1,5.711L.563,2.173c-.823.846-.718,2.945.184,4.789a13.275,13.275,0,0,0,1.409,2.2,19.736,19.736,0,0,0,1.686,1.924,18.8,18.8,0,0,0,1.92,1.692,13.279,13.279,0,0,0,2.2,1.406c1.847.9,3.946,1,4.791.176L9.213,10.823A1.705,1.705,0,0,1,7.524,10.557ZM14.771,11.6,12.086,8.916a.535.535,0,0,0-.75,0h0l-.59.589-.544.547a1.651,1.651,0,0,1-.218.181l3.445,3.447q.669-.67,1.337-1.335A.525.525,0,0,0,14.771,11.6Z" transform="translate(0 0)"/></g></svg>