<svg xmlns="http://www.w3.org/2000/svg" width="23.266" height="18.4" viewBox="0 0 23.266 18.4"><defs><style>.a{fill:#fff;}</style></defs><g transform="translate(0 0)"><path class="a" d="M23.267,59.618a9.734,9.734,0,0,1-2.741.732,4.691,4.691,0,0,0,2.1-2.569,9.782,9.782,0,0,1-3.033,1.128,4.82,4.82,0,0,0-3.483-1.468,4.711,4.711,0,0,0-4.773,4.646,4.542,4.542,0,0,0,.124,1.059A13.676,13.676,0,0,1,1.622,58.29a4.519,4.519,0,0,0-.646,2.336A4.614,4.614,0,0,0,3.1,64.493,4.872,4.872,0,0,1,.937,63.91v.058a4.685,4.685,0,0,0,3.828,4.556,4.958,4.958,0,0,1-1.258.163,4.7,4.7,0,0,1-.9-.086,4.761,4.761,0,0,0,4.458,3.227,9.742,9.742,0,0,1-5.927,1.986A10.416,10.416,0,0,1,0,73.75a13.758,13.758,0,0,0,7.316,2.091A13.3,13.3,0,0,0,20.9,62.62l-.016-.6A9.4,9.4,0,0,0,23.267,59.618Z" transform="translate(-0.001 -57.441)"/></g></svg>