<svg xmlns="http://www.w3.org/2000/svg" width="586.805" height="470.263" viewBox="0 0 586.805 470.263"><defs><style>.a{fill:none;stroke:#535461;stroke-miterlimit:10;stroke-width:2px;}.b{fill:#6c63ff;}.c{fill:#fc6681;}.d{fill:#fe7ebb;}.e{fill:#ffd037;}.f{fill:#c2beff;}.g{opacity:0.2;}.h{fill:#ffd5d8;}.i{opacity:0.1;}.j{opacity:0.05;}.k{fill:#fff;}</style></defs><g transform="translate(-8.716 -7.219)"><path class="a" d="M179.3,378.967S146.454,314.6,160.873,260a109.469,109.469,0,0,0-3.963-69.137A184.151,184.151,0,0,0,141.4,161" transform="translate(-99.606 -80.255)"/><path class="b" d="M133.332,89.79c1.567,8.351-9.006,35.4-9.006,35.4S104.668,103.811,103.1,95.466a15.381,15.381,0,0,1,30.225-5.676Z" transform="translate(-82.655 -43.541)"/><path class="b" d="M194.161,156.928c-3.224,7.836-26.8,24.818-26.8,24.818s-4.886-28.624-1.679-36.488a15.381,15.381,0,1,1,28.462,11.67Z" transform="translate(-109.817 -69.119)"/><path class="b" d="M213.95,293.457c-6.75,5.161-35.66,7.892-35.66,7.892s10.232-27.18,16.982-32.335a15.381,15.381,0,1,1,18.678,24.443Z" transform="translate(-115.848 -126.42)"/><path class="b" d="M209.818,406.124c-5.782,6.224-33.818,13.8-33.818,13.8s5.491-28.518,11.273-34.742a15.381,15.381,0,1,1,22.54,20.934Z" transform="translate(-114.84 -176.795)"/><path class="b" d="M107.95,209.295c7.08,4.7,36.108,5.485,36.108,5.485s-12.034-26.43-19.115-31.126a15.382,15.382,0,1,0-17,25.641Z" transform="translate(-81.846 -89.101)"/><path class="b" d="M99.8,337.976c8.161,2.362,36.1-5.6,36.1-5.6s-19.389-21.617-27.55-23.979A15.38,15.38,0,1,0,99.8,337.949Z" transform="translate(-76.399 -144.883)"/><path class="b" d="M114.377,465.951c7.646,3.705,36.516.61,36.516.61s-15.46-24.583-23.1-28.288a15.383,15.383,0,0,0-13.433,27.678Z" transform="translate(-83.884 -201.651)"/><path class="c" d="M133.332,89.79c1.567,8.351-9.006,35.4-9.006,35.4S104.668,103.811,103.1,95.466a15.381,15.381,0,0,1,30.225-5.676Z" transform="translate(-82.655 -43.541)"/><path class="c" d="M194.161,156.928c-3.224,7.836-26.8,24.818-26.8,24.818s-4.886-28.624-1.679-36.488a15.381,15.381,0,1,1,28.462,11.67Z" transform="translate(-109.817 -69.119)"/><path class="c" d="M213.95,293.457c-6.75,5.161-35.66,7.892-35.66,7.892s10.232-27.18,16.982-32.335a15.381,15.381,0,1,1,18.678,24.443Z" transform="translate(-115.848 -126.42)"/><path class="c" d="M209.818,406.124c-5.782,6.224-33.818,13.8-33.818,13.8s5.491-28.518,11.273-34.742a15.381,15.381,0,1,1,22.54,20.934Z" transform="translate(-114.84 -176.795)"/><path class="c" d="M107.95,209.295c7.08,4.7,36.108,5.485,36.108,5.485s-12.034-26.43-19.115-31.126a15.382,15.382,0,1,0-17,25.641Z" transform="translate(-81.846 -89.101)"/><path class="c" d="M99.8,337.976c8.161,2.362,36.1-5.6,36.1-5.6s-19.389-21.617-27.55-23.979A15.38,15.38,0,1,0,99.8,337.949Z" transform="translate(-76.399 -144.883)"/><path class="c" d="M114.377,465.951c7.646,3.705,36.516.61,36.516.61s-15.46-24.583-23.1-28.288a15.383,15.383,0,0,0-13.433,27.678Z" transform="translate(-83.884 -201.651)"/><path class="a" d="M987.94,220.252s41.694-65.532,46.731-93.518A360.3,360.3,0,0,1,1049.224,73" transform="translate(-472.319 -41.511)"/><path class="d" d="M1093.737,173l-26.307,2.239S1081.423,199.307,1093.737,173Z" transform="translate(-507.317 -85.538)"/><path class="d" d="M1031.712,147l20.833,16.685S1025.555,174.426,1031.712,147Z" transform="translate(-491.189 -74.091)"/><path class="d" d="M1101.8,132l-23.687,3.174S1099,152.15,1101.8,132Z" transform="translate(-512.019 -67.487)"/><path class="d" d="M1050.117,117l15.639,10.976S1046.759,136.031,1050.117,117Z" transform="translate(-499.519 -60.883)"/><path class="d" d="M1088.74,95.9s19.417-5.144,22.215-4.024,1.12,13.433-6.717,13.993S1088.74,95.9,1088.74,95.9Z" transform="translate(-516.699 -49.751)"/><path class="d" d="M1061.715,73s12.314,11.754,12.873,14.553-10.075,9.515-15.672,0S1061.715,73,1061.715,73Z" transform="translate(-502.721 -41.511)"/><circle class="e" cx="5.597" cy="5.597" r="5.597" transform="translate(576.34 27.012)"/><circle class="e" cx="5.597" cy="5.597" r="5.597" transform="translate(566.265 24.213)"/><path class="f" d="M228.371,90.291c-2.877,3.493-3.985,8.4-5.228,13.025-9.985,37.216-34.58,67.167-62.594,88.537-11.861,9.056-26.307,21.208-23.71,37.44,1.394,8.72,7.528,15.112,12.1,22.243,9.56,14.872,12.655,35.095,8.1,52.894-5.183,20.256-19.657,39.181-15.174,59.644,2.765,12.627,12.146,21.583,21.169,29.3q21.107,18.04,43.563,33.79c10.036,7.041,20.71,13.892,32.4,14.782,10.3.789,20.385-3.123,30.158-6.991,8.541-3.358,17.3-6.89,24.2-13.657,4.478-4.416,8.094-10.12,13.092-13.73,11.754-8.491,26.833-3.106,40.3.509a140.333,140.333,0,0,0,96.048-8.793c46.4-21.829,81.759-67.586,127.124-92.153,19.512-10.568,40.737-17.122,58.8-30.729a109.847,109.847,0,0,0,25.848-27.986,120.947,120.947,0,0,0,18.93-74.236c-2.121-26.3-14.088-51.646-32.856-66.489C620.546,91.8,595.168,88.83,572.3,79.287c-23.615-9.857-44.615-26.8-68-37.367A139.052,139.052,0,0,0,384.36,44.629c-25.451,12.846-51.243,42.88-79.593,45.136C284.561,91.411,244.144,71.177,228.371,90.291Z" transform="translate(-97.464 -22.42)"/><path class="g" d="M675.6,384.047v1.119c0,11.525-8.771,24.807-24.807,24.807a24.628,24.628,0,0,1-13.389-3.918,18.03,18.03,0,0,0,2.1.106,17.463,17.463,0,0,0,10.825-3.722,8.732,8.732,0,0,1-8.116-6.028,10.991,10.991,0,0,0,1.646.134,9.221,9.221,0,0,0,2.295-.3,8.721,8.721,0,0,1-6.991-8.558v-.106a8.782,8.782,0,0,0,3.918,1.119,8.732,8.732,0,0,1-2.7-11.659,24.784,24.784,0,0,0,17.978,9.123,9.836,9.836,0,0,1-.218-2,8.726,8.726,0,0,1,15.113-5.967,17.168,17.168,0,0,0,5.536-2.1,8.693,8.693,0,0,1-3.834,4.8,17.48,17.48,0,0,0,5.037-1.349,18.737,18.737,0,0,1-4.371,4.506Z" transform="translate(-317.984 -174.661)"/><path class="h" d="M520.533,373.088C502.3,426.412,504.368,444.4,504.368,444.4l3.918,30.225s-78.921,11.194-66.607-25.747c7.058-21.18,5.474-55.245,2.832-80.449C442.547,349.663,440,335.81,440,335.81l90.675,9.515C526.757,355.507,523.4,364.725,520.533,373.088Z" transform="translate(-231.073 -157.22)"/><path class="i" d="M530.675,345.325c-3.918,10.17-7.276,19.4-10.165,27.762a59.89,59.89,0,0,1-76-4.662C442.547,349.663,440,335.81,440,335.81Z" transform="translate(-231.073 -157.22)"/><circle class="h" cx="59.89" cy="59.89" r="59.89" transform="translate(194.396 106.386)"/><path class="h" d="M565.263,540.939,530,525.827l6.157-47.017a76.124,76.124,0,0,1,15.152,3.358c13.579,4.4,31.9,14.334,35.761,36.287a.779.779,0,0,1,0,.112C593.249,554.373,565.263,540.939,565.263,540.939Z" transform="translate(-270.698 -220.18)"/><path class="j" d="M601.418,520.42l-4.735,7.109-18.963,1.265V516.048s-4.545-14.827-4.545-15.946-7.579-14.413-7.579-14.413l-3.056-2.379,3.118.823C579.237,488.532,597.59,498.467,601.418,520.42Z" transform="translate(-285.025 -222.161)"/><path class="b" d="M562.54,483.31l10.915,20.43v25.188l15.113,3.918-9.515-26.307S568.137,485.549,562.54,483.31Z" transform="translate(-285.025 -222.161)"/><path class="b" d="M383.8,699.319h0a58.966,58.966,0,0,1,2.127-18.169C393.068,654.905,381,569.486,381,569.486s3.358-72.764,48.136-85.078c42.757-11.754,72.764,36.7,75.372,41.1.129.207.19.319.19.319l17.8-7.786.112-.05v.28c.14,3.98,3.2,11.827,7.439,20.9a265.3,265.3,0,0,1,16.724,46.877,271.2,271.2,0,0,1,8.066,54.013c1.741,35.738,9.191,59.258,9.191,59.258Z" transform="translate(-205.097 -221.837)"/><path class="i" d="M643.9,613.646l2.418,16.182L601.54,553.146l.09-.039,17.822-7.8.168.33.118.229c.14,3.98,3.2,11.827,7.439,20.9A265.308,265.308,0,0,1,643.9,613.646Z" transform="translate(-302.196 -249.458)"/><path class="i" d="M301.076,165.267c-23.6-2.664-48.567,3.123-66.937,18.174s-29.106,39.807-24.98,63.193c3.453,19.456,16.5,38.123,11.844,57.321-4.416,18.236-22.893,28.859-39.617,37.361l-58.429,29.7c-6.308,3.207-13.12,6.952-15.672,13.54-2.664,6.834.134,14.553,3.884,20.872s8.536,12.208,10.288,19.333c2.239,9.084-.929,18.728-5.816,26.7s-11.452,14.777-16.976,22.322c-7.685,10.467-13.411,22.708-14.262,35.649s3.784,26.6,13.8,34.832c9.2,7.556,21.628,9.8,33.522,10.388,23.855,1.175,47.576-3.224,71.085-7.6l22.6-4.215c20.8-3.879,43.356-8.748,56.89-25.025,15.672-18.818,13.864-46.166,10.786-70.447s-6-51.215,8.222-71.152c9.3-13.058,24.863-21.157,32.257-35.38,13.534-26.01-6.157-58.049.2-86.667,1.8-8.1,5.653-15.6,8.054-23.548,4.271-14.144,4.724-34.535-2.6-48C332.482,170.271,313.771,166.694,301.076,165.267Z" transform="translate(-74.468 -81.858)"/><path class="b" d="M299.076,165.267c-23.6-2.664-48.567,3.123-66.937,18.174s-29.106,39.807-24.98,63.193c3.453,19.456,16.5,38.123,11.844,57.321-4.416,18.236-22.893,28.859-39.617,37.361l-58.429,29.7c-6.308,3.207-13.12,6.952-15.672,13.54-2.664,6.834.134,14.553,3.884,20.872s8.536,12.208,10.288,19.333c2.239,9.084-.929,18.728-5.816,26.7s-11.452,14.777-16.976,22.322c-7.685,10.467-13.411,22.708-14.262,35.649s3.784,26.6,13.8,34.832c9.2,7.556,21.628,9.8,33.522,10.388,23.855,1.175,47.576-3.224,71.085-7.6l22.6-4.215c20.8-3.879,43.356-8.748,56.89-25.025,15.672-18.818,13.864-46.166,10.786-70.447s-6-51.215,8.222-71.152c9.3-13.058,24.863-21.157,32.257-35.38,13.534-26.01-6.157-58.049.2-86.667,1.8-8.1,5.653-15.6,8.054-23.548,4.271-14.144,4.724-34.535-2.6-48C330.482,170.271,311.771,166.694,299.076,165.267Z" transform="translate(-73.587 -81.858)"/><path class="i" d="M299.076,165.267c-23.6-2.664-48.567,3.123-66.937,18.174s-29.106,39.807-24.98,63.193c3.453,19.456,16.5,38.123,11.844,57.321-4.416,18.236-22.893,28.859-39.617,37.361l-58.429,29.7c-6.308,3.207-13.12,6.952-15.672,13.54-2.664,6.834.134,14.553,3.884,20.872s8.536,12.208,10.288,19.333c2.239,9.084-.929,18.728-5.816,26.7s-11.452,14.777-16.976,22.322c-7.685,10.467-13.411,22.708-14.262,35.649s3.784,26.6,13.8,34.832c9.2,7.556,21.628,9.8,33.522,10.388,23.855,1.175,47.576-3.224,71.085-7.6l22.6-4.215c20.8-3.879,43.356-8.748,56.89-25.025,15.672-18.818,13.864-46.166,10.786-70.447s-6-51.215,8.222-71.152c9.3-13.058,24.863-21.157,32.257-35.38,13.534-26.01-6.157-58.049.2-86.667,1.8-8.1,5.653-15.6,8.054-23.548,4.271-14.144,4.724-34.535-2.6-48C330.482,170.271,311.771,166.694,299.076,165.267Z" transform="translate(-73.587 -81.858)"/><path class="b" d="M562.54,477.576l41.979,77.068,29.106-14.939S581.57,469.18,574.854,470.3,562.54,477.576,562.54,477.576Z" transform="translate(-285.025 -216.427)"/><path class="h" d="M659.537,501.843l-9.515-27.986S643.3,405.01,617,402.772s6.717,73.324,6.717,73.324,11.754,21.829,7.276,38.061S659.537,501.843,659.537,501.843Z" transform="translate(-304.523 -186.68)"/><path class="i" d="M450.779,603.293,516.216,682.4s62.689,44.778,80.04,11.754c0,0,7.276-90.115-1.119-111.385s-11.194-34.7-11.194-34.7S549.24,561.5,547,551.988l.84,90.955S508.38,497.7,470.319,515.606q-.795.375-1.567.756C436.176,532.56,427.567,575.239,450.779,603.293Z" transform="translate(-230.048 -235.707)"/><path class="b" d="M454.779,600.439l65.437,79.111s62.689,44.778,80.04,11.754c0,0,5.037-90.115-3.358-111.385s-8.956-34.7-8.956-34.7S553.24,558.65,551,549.135l1.4,112.784s-40.02-167.077-78.081-149.166q-.795.375-1.567.756C440.176,529.707,431.567,572.386,454.779,600.439Z" transform="translate(-231.809 -234.532)"/><circle class="k" cx="4.478" cy="4.478" r="4.478" transform="translate(384.422 61.328)"/><circle class="k" cx="2.239" cy="2.239" r="2.239" transform="translate(372.108 125.696)"/><circle class="k" cx="2.239" cy="2.239" r="2.239" transform="translate(288.15 63.567)"/><circle class="k" cx="2.239" cy="2.239" r="2.239" transform="translate(102.02 154.628)"/><circle class="k" cx="2.239" cy="2.239" r="2.239" transform="translate(231.618 316.562)"/><circle class="k" cx="2.239" cy="2.239" r="2.239" transform="translate(79.933 213.573)"/><circle class="k" cx="2.239" cy="2.239" r="2.239" transform="translate(468.94 80.359)"/><circle class="k" cx="2.239" cy="2.239" r="2.239" transform="translate(341.883 171.034)"/><circle class="k" cx="2.239" cy="2.239" r="2.239" transform="translate(533.308 141.928)"/><circle class="k" cx="2.239" cy="2.239" r="2.239" transform="translate(386.918 308.552)"/><path class="k" d="M831.3,260.551h-4.651V255.9h-.778v4.651H821.23v.778h4.646v4.646h.778v-4.646H831.3Z" transform="translate(-360.126 -111.453)"/><path class="k" d="M419.708,758.971h-2.065V756.9H417.3v2.071H415.23v.341H417.3v2.065h.347v-2.065h2.065Z" transform="translate(-181.373 -332.032)"/><path class="k" d="M584.708,645.971h-2.071V643.9H582.3v2.071H580.23v.341H582.3v2.065h.341v-2.065h2.071Z" transform="translate(-254.019 -282.281)"/><path class="k" d="M830.708,415.971h-2.071V413.9H828.3v2.071H826.23v.341H828.3v2.065h.341v-2.065h2.071Z" transform="translate(-362.327 -181.017)"/><path class="k" d="M662.708,473.971h-2.071V471.9H660.3v2.071H658.23v.341H660.3v2.065h.341v-2.065h2.071Z" transform="translate(-288.361 -206.553)"/><path class="k" d="M187.708,411.971h-2.071V409.9H185.3v2.071H183.23v.341H185.3v2.065h.341v-2.065h2.071Z" transform="translate(-79.229 -179.256)"/><path class="k" d="M588.708,176.971h-2.071V174.9H586.3v2.071H584.23v.341H586.3v2.065h.341v-2.065h2.071Z" transform="translate(-255.78 -75.791)"/><path class="k" d="M265.708,141.971h-2.065V139.9H263.3v2.071H261.23v.341H263.3v2.065h.347v-2.065h2.065Z" transform="translate(-113.571 -60.381)"/><path class="g" d="M787.77,172.4l-3.23,8.245v33.706h11.452v6.09h6.453l6.09-6.09h9.331L830.415,201.8V172.4Zm38.369,27.247-7.2,7.176H807.466l-6.09,6.09v-6.09h-9.683V176.7h34.423Zm-7.2-14.7v12.538h-4.3V184.943Zm-11.474,0v12.538h-4.3V184.943Z" transform="translate(-382.767 -85.274)"/><path class="g" d="M920.967,326.081l-9.207-3.84L924.074,292.6l9.207,3.823Zm9.4-35.593a5.8,5.8,0,1,1,7.568-3.162A5.8,5.8,0,0,1,930.365,290.488ZM955.43,340.4l-9.185-3.817,5.995-14.424c1.427-3.437,3.19-7.875-1.522-9.834s-7.069,1.444-8.676,5.306l-6.112,14.687-9.2-3.823,12.314-29.637,8.827,3.666-1.679,4.041.129.056a10.462,10.462,0,0,1,10.7-1.164c9.314,3.868,8.48,10.713,5.172,18.684l-6.767,16.277Z" transform="translate(-438.779 -132.35)"/><path class="g" d="M627.549,79.02a9.14,9.14,0,1,0,6.492,2.667A9.157,9.157,0,0,0,627.549,79.02Zm0,15.113a5.95,5.95,0,1,1,5.95-5.95A5.95,5.95,0,0,1,627.549,94.133Zm11.665-15.482a2.139,2.139,0,1,1,0-.006Zm6.062,2.166c-.134-2.86-.789-5.4-2.883-7.483s-4.623-2.743-7.483-2.883c-2.95-.168-11.788-.168-14.732,0-2.855.134-5.385.789-7.484,2.877s-2.743,4.623-2.883,7.483c-.168,2.95-.168,11.788,0,14.732.134,2.86.789,5.4,2.883,7.483s4.623,2.743,7.484,2.883c2.95.168,11.788.168,14.732,0,2.86-.134,5.4-.789,7.483-2.883s2.743-4.623,2.883-7.483C645.443,92.594,645.443,83.789,645.275,80.817Zm-3.806,17.911a6.028,6.028,0,0,1-3.392,3.392c-2.351.935-7.931.716-10.528.716s-8.183.207-10.528-.716a6.028,6.028,0,0,1-3.392-3.392c-.935-2.351-.716-7.931-.716-10.528s-.207-8.183.716-10.528a6.028,6.028,0,0,1,3.392-3.392c2.351-.935,7.931-.716,10.528-.716s8.183-.207,10.528.716a6.028,6.028,0,0,1,3.392,3.392c.935,2.351.716,7.931.716,10.528s.213,8.161-.717,10.489Z" transform="translate(-305.782 -40.333)"/><path class="g" d="M829.482,452.4v32.861a2.037,2.037,0,0,1-2.037,2.037H818.03V472.967h4.8l.716-5.6h-5.524v-3.56c0-1.618.448-2.715,2.765-2.715h2.95v-4.987a39.692,39.692,0,0,0-4.3-.224c-4.254,0-7.176,2.6-7.176,7.372v4.114H807.44v5.6h4.814v14.307H794.577a2.043,2.043,0,0,1-2.037-2.037V452.4a2.043,2.043,0,0,1,2.037-2.037h32.861A2.043,2.043,0,0,1,829.482,452.4Z" transform="translate(-386.289 -207.654)"/><path class="g" d="M984.8,185.4a5.871,5.871,0,0,0-3.045-5.01c-3.314-1.808-17.514-5.228-17.514-5.228s-14.206-3.42-17.978-3.319a5.872,5.872,0,0,0-4.987,3.073c-1.808,3.358-3.6,10.775-3.6,10.775s-1.791,7.439-1.679,11.234a5.782,5.782,0,0,0,3.056,4.942c3.314,1.808,17.514,5.228,17.514,5.228s14.206,3.42,17.978,3.319a5.782,5.782,0,0,0,4.976-3.011c1.808-3.358,3.6-10.775,3.6-10.775S984.893,189.2,984.8,185.4Zm-30.684,11.4,3.252-13.506,10.249,9.61-13.495,3.918Z" transform="translate(-449.447 -85.03)"/></g></svg>